<svg width="20" height="18" viewBox="0 0 20 18" fill="none" xmlns="http://www.w3.org/2000/svg">
<path fill-rule="evenodd" clip-rule="evenodd" d="M5.46604 17.3672H2.36089C1.70841 17.3672 1.38611 17.3672 1.18959 17.2415C0.977331 17.1038 0.847626 16.8759 0.831903 16.6243C0.8201 16.3925 0.981273 16.1094 1.30357 15.5434L8.97058 2.02922C9.29682 1.45535 9.46189 1.16841 9.67021 1.06229C9.89425 0.948311 10.1615 0.948311 10.3856 1.06229C10.5939 1.16841 10.759 1.45535 11.0852 2.02922L12.6614 4.78062L12.6694 4.79466C13.0218 5.41031 13.2005 5.72251 13.2785 6.05018C13.365 6.40787 13.365 6.7852 13.2785 7.14289C13.1999 7.47305 13.023 7.78751 12.6653 8.41247L8.63803 15.5316L8.62761 15.5498C8.27293 16.1705 8.09318 16.4851 7.84406 16.7225C7.57285 16.982 7.2466 17.1705 6.88892 17.2768C6.56267 17.3672 6.19714 17.3672 5.46604 17.3672ZM13.3076 17.3672H17.7569C18.4133 17.3672 18.7435 17.3672 18.9402 17.2376C19.1524 17.1 19.286 16.868 19.2979 16.6166C19.3092 16.3923 19.1515 16.1202 18.8426 15.5871C18.8319 15.5689 18.8213 15.5505 18.8104 15.5317L16.5817 11.719L16.5564 11.6761C16.2432 11.1465 16.0851 10.879 15.8821 10.7757C15.6581 10.6617 15.3946 10.6617 15.1707 10.7757C14.9663 10.8818 14.8012 11.1609 14.475 11.7229L12.2542 15.5356L12.2466 15.5487C11.9215 16.1099 11.759 16.3903 11.7707 16.6204C11.7864 16.872 11.9162 17.1038 12.1284 17.2415C12.321 17.3672 12.6512 17.3672 13.3076 17.3672Z" fill="white"/>
</svg>
