<svg width="20" height="20" viewBox="0 0 20 20" fill="none" xmlns="http://www.w3.org/2000/svg">
<path d="M13.8859 11.5942L16.1471 13.853L16.146 13.8542L10 20L3.8528 13.8528L6.11608 11.5958L10 15.48L13.8859 11.5942ZM10 7.70552L12.2931 9.9988H12.2923L12.2944 9.99992L10 12.2945L7.70872 10.0029L7.70552 9.9996L7.70872 9.99648L8.11032 9.5948L10 7.70552ZM17.7401 7.74088L20 10.0008L17.74 12.2609L15.48 10.001L17.7401 7.74088ZM2.26008 7.7396L4.52 9.99952L2.25992 12.2596L0 10L2.26008 7.7396ZM10 0L16.146 6.14584L13.886 8.40584L10 4.52L6.11592 8.404L3.856 6.144L10 0Z" fill="white"/>
</svg>
