<svg width="18" height="24" viewBox="0 0 18 24" fill="none" xmlns="http://www.w3.org/2000/svg">
<path d="M8.02977 1.08814C8.56882 0.803954 9.38903 0.803954 9.92808 1.08814L15.4286 3.98798C15.7533 4.15912 15.9316 4.41416 15.9635 4.67744H15.9688V19.2534C15.9616 19.5406 15.7816 19.8259 15.4286 20.012L9.92808 22.9119C9.38903 23.196 8.56882 23.196 8.02977 22.9119L2.52926 20.012C2.17773 19.8267 2.00903 19.5394 2.00068 19.2534C1.99982 19.2241 1.99974 19.1999 2.00065 19.18L2.00068 4.77558C1.99986 4.75532 1.99985 4.73514 2.00066 4.71506L2.00068 4.67744H2.00313C2.02756 4.41125 2.19777 4.16273 2.52926 3.98798L8.02977 1.08814ZM15.0938 12.7812L9.9264 15.5144C9.38813 15.7991 8.56911 15.7991 8.03084 15.5144L2.875 12.7873V19.2084L8.03084 21.921C8.33553 22.084 8.65233 22.2428 8.96083 22.2498L8.97862 22.25C9.28651 22.251 9.58543 22.0945 9.88854 21.9462L15.0938 19.185V12.7812ZM1.13824 18.9375C1.13824 19.4963 1.20261 19.8635 1.33041 20.1223C1.43634 20.3367 1.59527 20.5006 1.88548 20.7L1.90204 20.7113C1.96573 20.7547 2.03589 20.8001 2.12129 20.8534L2.222 20.9156L2.53125 21.1039L2.0877 21.8438L1.74156 21.6328L1.68338 21.5968C1.5833 21.5344 1.50035 21.4809 1.42298 21.4283C0.595889 20.8657 0.287429 20.2523 0.281342 18.9764L0.28125 18.9375H1.13824ZM8.5625 8.90625C8.52248 8.92001 8.48496 8.93597 8.45077 8.95407L2.95864 11.8632C2.95288 11.8663 2.94738 11.8693 2.94215 11.8723L2.9375 11.875L2.94612 11.88L2.95864 11.8868L8.45077 14.7959C8.48496 14.814 8.52248 14.83 8.5625 14.8438V8.90625ZM9.4375 8.90625V14.8438C9.47755 14.83 9.51507 14.814 9.54926 14.7959L15.0413 11.8868C15.0471 11.8837 15.0526 11.8807 15.0578 11.8777L15.0625 11.875L15.0539 11.87L15.0413 11.8632L9.54926 8.95407C9.51507 8.93597 9.47755 8.92001 9.4375 8.90625ZM15.0938 5.71875L10.1562 8.3125L15.0938 10.9062V5.71875ZM2.875 5.71875V10.9062L7.8125 8.3125L2.875 5.71875ZM9.54445 1.86335C9.2586 1.71222 8.7414 1.71222 8.45555 1.86335L2.95866 4.76949C2.95289 4.77255 2.94739 4.77556 2.94215 4.77856L2.9375 4.78125L2.94613 4.78619L2.95866 4.793L8.45555 7.69914C8.7414 7.85029 9.2586 7.85029 9.54445 7.69914L15.0413 4.793C15.0471 4.78994 15.0526 4.78694 15.0578 4.78396L15.0625 4.78125L15.0539 4.77631L15.0413 4.76949L9.54445 1.86335ZM15.9123 2.15625L16.2584 2.36716L16.3166 2.4032C16.4167 2.46553 16.4996 2.51908 16.577 2.57171C17.4041 3.1343 17.7126 3.74766 17.7187 5.02363L17.7188 5.0625H16.8618C16.8618 4.5037 16.7974 4.13647 16.6696 3.87771C16.5637 3.66328 16.4047 3.49939 16.1145 3.29998L16.098 3.28865C16.0343 3.24533 15.9641 3.19994 15.8787 3.14661L15.778 3.08438L15.4688 2.89609L15.9123 2.15625Z" fill="white"/>
</svg>
