<svg width="16" height="16" viewBox="0 0 16 16" fill="none" xmlns="http://www.w3.org/2000/svg">
<path fill-rule="evenodd" clip-rule="evenodd" d="M15.2043 16C15.2718 16 15.3265 15.9453 15.3265 15.8779L15.3265 9.5277C14.4416 11.1223 13.0154 12.3749 11.2959 13.0373V15.2672C11.2959 15.6719 11.624 16 12.0288 16H15.2043ZM11.2959 5.74046C11.2959 7.29191 10.0382 8.54962 8.48678 8.54962H7.63182C6.55254 8.54962 5.67762 9.42454 5.67762 10.5038V12.458C5.67762 12.5255 5.7323 12.5802 5.79975 12.5802H8.48678C12.2642 12.5802 15.3265 9.51792 15.3265 5.74046V0.732825C15.3265 0.328097 14.9984 3.52361e-07 14.5936 3.52361e-07L11.2959 0L11.2959 5.74046ZM0.79212 8.18278e-07C0.724666 8.18278e-07 0.669983 0.0546835 0.669983 0.122138V6.4723C1.55482 4.87772 2.98109 3.62509 4.70052 2.96271V0.732825C4.70052 0.328097 4.37242 8.18278e-07 3.96769 8.18278e-07H0.79212ZM4.70052 10.2595C4.70052 8.70809 5.95822 7.45038 7.50968 7.45038H8.36464C9.44391 7.45038 10.3188 6.57546 10.3188 5.49618V3.54199C10.3188 3.47453 10.2642 3.41985 10.1967 3.41985H7.50968C3.73222 3.41985 0.669983 6.48208 0.669983 10.2595V15.2672C0.669983 15.6719 0.99808 16 1.40281 16H4.70052V10.2595Z" fill="white"/>
</svg>
