<svg width="20" height="20" viewBox="0 0 20 20" fill="none" xmlns="http://www.w3.org/2000/svg">
<path d="M6.22762 14.1986C7.88651 13.5266 9.0566 11.8999 9.0566 9.99998C9.0566 9.63248 9.01283 9.27521 8.9302 8.93309C8.12444 8.73649 7.38812 8.32236 6.80162 7.73585C6.21426 7.14849 5.79977 6.41089 5.60352 5.60376C6.40922 5.803 7.14522 6.21848 7.7321 6.80536C8.16177 7.23503 8.49956 7.74462 8.72789 8.30298C8.05641 6.64286 6.42913 5.47168 4.5283 5.47168C2.02739 5.47168 0 7.49907 0 9.99998C0 12.5009 2.02739 14.5283 4.5283 14.5283C4.8956 14.5283 5.25269 14.4846 5.59463 14.402C5.79125 13.5963 6.20537 12.86 6.79185 12.2735C7.37921 11.6862 8.11681 11.2717 8.92394 11.0754C8.7247 11.8811 8.30922 12.6171 7.72234 13.204C7.29342 13.633 6.78485 13.9703 6.22762 14.1986Z" fill="white"/>
<path d="M10.001 20C12.5019 20 14.5293 17.9726 14.5293 15.4717C14.5293 14.0808 13.9022 12.8364 12.9153 12.0057C13.0124 12.0876 13.1063 12.1739 13.1965 12.2641C13.7839 12.8515 14.1984 13.5891 14.3946 14.3962C13.5889 14.197 12.8529 13.7815 12.2661 13.1946C11.6799 12.6085 11.2648 11.8736 11.0652 11.0691C10.7239 10.9869 10.3675 10.9434 10.001 10.9434C9.10291 10.9434 8.26591 11.2048 7.56192 11.6557C7.97916 11.39 8.439 11.1934 8.92394 11.0754C8.7247 11.8811 8.30922 12.6171 7.72234 13.204C7.13678 13.7896 6.40276 14.2045 5.59917 14.4043C5.51647 14.7466 5.47266 15.104 5.47266 15.4717C5.47266 17.9726 7.50005 20 10.001 20Z" fill="white"/>
<path d="M15.4717 14.5283C17.9726 14.5283 20 12.5009 20 9.99998C20 7.49907 17.9726 5.47168 15.4717 5.47168C15.1037 5.47168 14.7459 5.51557 14.4034 5.59841C14.2067 6.40391 13.7927 7.13998 13.2063 7.72632C12.619 8.31368 11.8814 8.72817 11.0742 8.92442C11.2735 8.11872 11.6889 7.38272 12.2758 6.79584C12.6496 6.42211 13.0838 6.11789 13.5579 5.89475C12.0135 6.61594 10.9434 8.18299 10.9434 9.99998C10.9434 10.3677 10.9872 10.7251 11.0699 11.0674C11.8749 11.2642 12.6105 11.6781 13.1965 12.2641C13.7839 12.8515 14.1984 13.5891 14.3946 14.3962C13.5889 14.197 12.8529 13.7815 12.2661 13.1946C11.9569 12.8855 11.6954 12.535 11.4879 12.1547C12.2541 13.5684 13.7508 14.5283 15.4717 14.5283Z" fill="white"/>
<path d="M14.403 5.59459C14.4855 5.25265 14.5293 4.89558 14.5293 4.5283C14.5293 2.02739 12.5019 0 10.001 0C7.50005 0 5.47266 2.02739 5.47266 4.5283C5.47266 5.39639 5.71692 6.20743 6.14048 6.89642C5.89669 6.49779 5.71493 6.06198 5.60352 5.60376C6.40922 5.803 7.14522 6.21848 7.7321 6.80536C8.31799 7.39125 8.73306 8.12576 8.93269 8.92987C9.27523 9.01271 9.63297 9.0566 10.001 9.0566C11.4478 9.0566 12.7362 8.37801 13.5652 7.32172C13.4541 7.46317 13.3343 7.59831 13.2063 7.72632C12.619 8.31368 11.8814 8.72817 11.0742 8.92442C11.2735 8.11872 11.6889 7.38272 12.2758 6.79584C12.8624 6.2093 13.5979 5.79397 14.403 5.59459Z" fill="white"/>
</svg>
