<svg width="22" height="18" viewBox="0 0 22 18" fill="none" xmlns="http://www.w3.org/2000/svg">
<path d="M16.2957 5.57673C15.9119 5.35348 15.413 5.35348 14.9909 5.57673L11.9975 7.28836L9.96358 8.40464L6.97023 10.1163C6.58645 10.3395 6.08757 10.3395 5.66542 10.1163L3.28607 8.77673C2.90232 8.55348 2.6337 8.14417 2.6337 7.69764V5.05579C2.6337 4.60929 2.86395 4.19998 3.28607 3.97673L5.62704 2.67439C6.01079 2.45114 6.5097 2.45114 6.93186 2.67439L9.27279 3.97673C9.65658 4.19998 9.9252 4.60929 9.9252 5.05579V6.76742L11.9591 5.61392V3.90229C11.9591 3.45579 11.7289 3.04648 11.3068 2.82323L6.97023 0.367419C6.58645 0.144169 6.08757 0.144169 5.66542 0.367419L1.25214 2.82323C0.829981 3.04648 0.599731 3.45579 0.599731 3.90229V8.85114C0.599731 9.29764 0.829981 9.70695 1.25214 9.9302L5.66542 12.386C6.0492 12.6093 6.54807 12.6093 6.97023 12.386L9.96358 10.7116L11.9975 9.55811L14.9909 7.8837C15.3746 7.66045 15.8735 7.66045 16.2957 7.8837L18.6366 9.18601C19.0204 9.40929 19.289 9.81858 19.289 10.2651V12.907C19.289 13.3535 19.0588 13.7628 18.6366 13.986L16.2957 15.3256C15.9119 15.5488 15.413 15.5488 14.9909 15.3256L12.6499 14.0232C12.2662 13.8 11.9975 13.3907 11.9975 12.9442V11.2325L9.96358 12.386V14.0976C9.96358 14.5442 10.1938 14.9535 10.616 15.1767L15.0293 17.6325C15.413 17.8558 15.9119 17.8558 16.334 17.6325L20.7473 15.1767C21.1311 14.9535 21.3997 14.5442 21.3997 14.0976V9.14883C21.3997 8.70229 21.1695 8.29301 20.7473 8.06973L16.2957 5.57673Z" fill="white"/>
</svg>
