<svg width="18" height="14" viewBox="0 0 18 14" fill="none" xmlns="http://www.w3.org/2000/svg">
<path fill-rule="evenodd" clip-rule="evenodd" d="M3.75898 0.333374C3.61481 0.333374 3.47654 0.391807 3.37458 0.495841L0.746277 3.17681C0.574877 3.35164 0.696177 3.65077 0.938477 3.65077H14.2397C14.3839 3.65077 14.5221 3.59234 14.6241 3.48831L17.2524 0.807341C17.4238 0.632474 17.3025 0.333374 17.0602 0.333374H3.75898ZM14.6241 5.49661C14.5221 5.39207 14.3839 5.33337 14.2397 5.33337H0.938477C0.696177 5.33337 0.574877 5.63394 0.746277 5.80961L3.37458 8.50347C3.47654 8.60801 3.61481 8.66671 3.75898 8.66671H17.0602C17.3025 8.66671 17.4238 8.36614 17.2524 8.19047L14.6241 5.49661ZM3.37458 10.5117C3.47654 10.4077 3.61481 10.3492 3.75898 10.3492H17.0602C17.3025 10.3492 17.4238 10.6484 17.2524 10.8232L14.6241 13.5042C14.5221 13.6082 14.3839 13.6666 14.2397 13.6666H0.938477C0.696177 13.6666 0.574877 13.3675 0.746277 13.1927L3.37458 10.5117Z" fill="url(#paint0_linear)"/>
<defs>
<linearGradient id="paint0_linear" x1="11.9336" y1="-3.32403" x2="2.42591" y2="14.515" gradientUnits="userSpaceOnUse">
<stop stop-color="#00FFA3"/>
<stop offset="1" stop-color="#DC1FFF"/>
</linearGradient>
</defs>
</svg>
