<svg width="26" height="26" viewBox="0 0 26 26" fill="none" xmlns="http://www.w3.org/2000/svg">
<path d="M14.1313 0.668641C13.5065 0.0438025 12.4934 0.0438025 11.8686 0.668641L0.66858 11.8686C0.0437414 12.4935 0.0437414 13.5065 0.66858 14.1314C1.29342 14.7562 2.30648 14.7562 2.93132 14.1314L3.39995 13.6628V24.2C3.39995 25.0837 4.1163 25.8 4.99995 25.8H8.19995C9.08361 25.8 9.79995 25.0837 9.79995 24.2V21C9.79995 20.1164 10.5163 19.4 11.4 19.4H14.6C15.4836 19.4 16.2 20.1164 16.2 21V24.2C16.2 25.0837 16.9163 25.8 17.7999 25.8H21C21.8836 25.8 22.5999 25.0837 22.5999 24.2V13.6628L23.0686 14.1314C23.6934 14.7562 24.7065 14.7562 25.3313 14.1314C25.9562 13.5065 25.9562 12.4935 25.3313 11.8686L14.1313 0.668641Z" fill="#D3D3DE"/>
</svg>
