<svg width="26" height="26" viewBox="0 0 26 26" fill="none" xmlns="http://www.w3.org/2000/svg">
<path fill-rule="evenodd" clip-rule="evenodd" d="M15.3827 2.07352C14.7763 -0.424489 11.2236 -0.42449 10.6172 2.07352C10.2254 3.6872 8.37667 4.45299 6.95861 3.58895C4.76344 2.25141 2.25135 4.7635 3.58889 6.95867C4.45293 8.37673 3.68714 10.2255 2.07346 10.6173C-0.424551 11.2237 -0.42455 14.7763 2.07346 15.3828C3.68714 15.7745 4.45293 17.6233 3.58889 19.0413C2.25135 21.2365 4.76344 23.7486 6.95862 22.4111C8.37667 21.547 10.2254 22.3128 10.6172 23.9265C11.2236 26.4245 14.7763 26.4245 15.3827 23.9265C15.7745 22.3128 17.6232 21.547 19.0413 22.4111C21.2365 23.7486 23.7486 21.2365 22.411 19.0413C21.547 17.6233 22.3128 15.7745 23.9264 15.3828C26.4245 14.7763 26.4245 11.2237 23.9264 10.6173C22.3128 10.2255 21.547 8.37673 22.411 6.95867C23.7486 4.7635 21.2365 2.25141 19.0413 3.58895C17.6232 4.45299 15.7745 3.6872 15.3827 2.07352ZM13 17.8C15.6509 17.8 17.7999 15.651 17.7999 13C17.7999 10.349 15.6509 8.20001 13 8.20001C10.349 8.20001 8.19995 10.349 8.19995 13C8.19995 15.651 10.349 17.8 13 17.8Z" fill="#12121E"/>
</svg>
