<svg width="26" height="26" viewBox="0 0 26 26" fill="none" xmlns="http://www.w3.org/2000/svg">
<path fill-rule="evenodd" clip-rule="evenodd" d="M13 25.8C20.0692 25.8 25.7999 20.0693 25.7999 13C25.7999 5.93077 20.0692 0.200012 13 0.200012C5.93071 0.200012 0.199951 5.93077 0.199951 13C0.199951 20.0693 5.93071 25.8 13 25.8ZM14.6 6.60001C14.6 5.71636 13.8836 5.00001 13 5.00001C12.1163 5.00001 11.4 5.71636 11.4 6.60001V13C11.4 13.4244 11.5685 13.8313 11.8686 14.1314L16.3941 18.6569C17.0189 19.2817 18.032 19.2817 18.6568 18.6569C19.2816 18.032 19.2816 17.019 18.6568 16.3941L14.6 12.3373V6.60001Z" fill="#12121E"/>
</svg>
