<svg width="928" height="242" viewBox="0 0 928 242" fill="none" xmlns="http://www.w3.org/2000/svg">
<path fill-rule="evenodd" clip-rule="evenodd" d="M372.226 176.979C361.142 176.979 350.917 174.402 341.551 169.248C332.185 164.094 324.731 156.751 319.189 147.219C313.647 137.687 310.876 126.603 310.876 113.967C310.876 101.221 313.647 90.1092 319.189 80.6325C324.731 71.1557 332.185 63.8682 341.551 58.7696C350.917 53.671 361.142 51.1217 372.226 51.1217C383.31 51.1217 393.534 53.671 402.9 58.7696C412.266 63.8682 419.72 71.1557 425.262 80.6325C430.804 90.1092 433.575 101.221 433.575 113.967C433.575 126.603 430.804 137.687 425.262 147.219C419.72 156.751 412.266 164.094 402.9 169.248C393.534 174.402 383.31 176.979 372.226 176.979ZM372.225 160.187C379.873 160.187 386.856 158.386 393.174 154.783C399.492 151.181 404.507 145.916 408.22 138.989C411.933 132.062 413.79 123.776 413.79 114.133C413.79 104.38 411.933 96.039 408.22 89.1116C404.507 82.1841 399.519 76.947 393.257 73.4002C386.995 69.8533 379.984 68.0799 372.225 68.0799C364.467 68.0799 357.428 69.8533 351.111 73.4002C344.793 76.947 339.805 82.1841 336.147 89.1116C332.49 96.039 330.661 104.38 330.661 114.133C330.661 123.776 332.545 132.062 336.314 138.989C340.082 145.916 345.153 151.181 351.526 154.783C357.9 158.386 364.799 160.187 372.225 160.187ZM463.296 99.0041H445.672V175.316H463.628V137.41C463.628 132.2 464.764 127.656 467.036 123.777C469.309 119.897 472.163 116.932 475.599 114.882C479.035 112.831 482.415 111.806 485.74 111.806C491.615 111.806 495.494 113.94 497.379 118.207C499.263 122.474 500.205 129.429 500.205 139.072V175.316H518.161V138.573C518.161 129.152 517.44 121.504 515.999 115.63C514.558 109.755 511.732 105.183 507.52 101.914C503.308 98.6438 497.268 97.009 489.398 97.009C483.302 97.009 477.982 98.5053 473.437 101.498C468.893 104.491 465.568 108.314 463.462 112.97L463.296 99.0041ZM569.827 176.979C560.738 176.979 553.146 175.178 547.05 171.576C540.954 167.973 536.465 163.152 533.583 157.111C530.701 151.07 529.26 144.448 529.26 137.243C529.26 129.152 530.95 122.059 534.331 115.962C537.712 109.866 542.395 105.183 548.38 101.914C554.365 98.6438 561.126 97.009 568.663 97.009C580.412 97.009 589.141 100.251 594.849 106.735C600.557 113.219 603.411 122.336 603.411 134.085C603.411 137.077 603.245 140.181 602.912 143.395H548.047C549.267 150.156 551.677 155.033 555.28 158.026C558.882 161.018 563.897 162.515 570.326 162.515C575.646 162.515 580.024 162.071 583.46 161.185C586.896 160.298 590.055 159.079 592.937 157.527L598.423 170.329C595.652 172.102 591.884 173.654 587.118 174.984C582.352 176.314 576.588 176.979 569.827 176.979ZM581.465 116.378C584.569 119.204 586.065 124.053 585.954 130.925H548.048C549.821 118.4 556.527 112.138 568.165 112.138C573.928 112.138 578.362 113.551 581.465 116.378ZM644.105 120.618L634.129 132.921V175.317H615.841V53.1169H634.129V107.65L676.026 53.1169H698.305L656.241 106.818L704.29 175.317H681.513L644.105 120.618ZM719.38 171.576C725.476 175.178 733.069 176.979 742.158 176.979C748.919 176.979 754.682 176.314 759.448 174.984C764.215 173.654 767.983 172.102 770.754 170.329L765.267 157.527C762.386 159.079 759.227 160.298 755.791 161.185C752.355 162.071 747.977 162.515 742.656 162.515C736.228 162.515 731.212 161.018 727.61 158.026C724.008 155.033 721.597 150.156 720.378 143.395H775.243C775.576 140.181 775.742 137.077 775.742 134.085C775.742 122.336 772.888 113.219 767.179 106.735C761.471 100.251 752.743 97.009 740.994 97.009C733.457 97.009 726.696 98.6438 720.71 101.914C714.725 105.183 710.042 109.866 706.662 115.962C703.281 122.059 701.591 129.152 701.591 137.243C701.591 144.448 703.032 151.07 705.913 157.111C708.795 163.152 713.284 167.973 719.38 171.576ZM758.284 130.925C758.395 124.053 756.899 119.204 753.795 116.378C750.692 113.551 746.258 112.138 740.495 112.138C728.857 112.138 722.151 118.4 720.377 130.925H758.284ZM777.365 99.0038L808.954 177.644L792.494 217.213H811.115L858 99.0038H838.381L821.257 147.551L817.599 159.355L813.941 147.551L797.648 99.0038H777.365Z" fill="#00B812"/>
<path d="M70 121C70 67.9807 112.981 25 166 25C219.019 25 262 67.9807 262 121C262 174.019 219.019 217 166 217C112.981 217 70 174.019 70 121Z" fill="#00B812"/>
<path fill-rule="evenodd" clip-rule="evenodd" d="M166.125 119.182C183.798 119.182 198.125 133.02 198.125 150.091C198.125 167.162 183.798 181 166.125 181C148.452 181 134.125 167.162 134.125 150.091C134.125 133.02 148.452 119.182 166.125 119.182ZM166.125 133.214C156.475 133.214 148.653 140.77 148.653 150.09C148.653 159.411 156.475 166.967 166.125 166.967C175.775 166.967 183.598 159.411 183.598 150.09C183.598 140.77 175.775 133.214 166.125 133.214ZM176.53 61V109.544H157.683V76.6272H140.8L146.133 61H176.53Z" fill="white"/>
</svg>
