<svg width="290" height="153" viewBox="0 0 290 153" fill="none" xmlns="http://www.w3.org/2000/svg">
<g opacity="0.5">
<rect x="25.5" y="0.5" width="239" height="152" rx="7.5" fill="white" stroke="#00B812"/>
<path d="M57.2715 23H56.1816V15.7754L53.9961 16.5781V15.5938L57.1016 14.4277H57.2715V23Z" fill="black"/>
<path d="M73.6094 14.123C74.543 14.123 75.248 14.5039 75.7246 15.2656C76.2051 16.0273 76.4453 17.1543 76.4453 18.6465C76.4453 20.1387 76.2051 21.2656 75.7246 22.0273C75.248 22.7891 74.543 23.1699 73.6094 23.1699C72.6758 23.1699 71.9707 22.7891 71.4941 22.0273C71.0176 21.2656 70.7793 20.1387 70.7793 18.6465C70.7793 17.1543 71.0176 16.0273 71.4941 15.2656C71.9707 14.5039 72.6758 14.123 73.6094 14.123ZM73.6094 22.2324C74.1641 22.2324 74.5762 21.9375 74.8457 21.3477C75.1191 20.7578 75.2559 19.8574 75.2559 18.6465C75.2559 18.002 75.2168 17.4199 75.1387 16.9004L72.3496 21.2656C72.6426 21.9102 73.0625 22.2324 73.6094 22.2324ZM73.6094 15.0605C73.0586 15.0605 72.6465 15.3555 72.373 15.9453C72.1035 16.5352 71.9688 17.4355 71.9688 18.6465C71.9688 19.1973 72.0059 19.7129 72.0801 20.1934L74.8105 15.8398C74.5137 15.3203 74.1133 15.0605 73.6094 15.0605ZM83.7812 16.4375L81.4316 19.5781L84.0098 23H82.7617L80.8398 20.3691L78.9238 23H77.6758L80.2539 19.5781L77.9043 16.4375H79.0996L80.8398 18.8105L82.5684 16.4375H83.7812ZM89.8398 19.7246C89.8398 18.8887 89.707 18.2578 89.4414 17.832C89.1758 17.4062 88.7832 17.1934 88.2637 17.1934C87.7402 17.1934 87.3438 17.4082 87.0742 17.8379C86.8047 18.2637 86.6699 18.8926 86.6699 19.7246C86.6699 20.5527 86.8047 21.1816 87.0742 21.6113C87.3438 22.041 87.7402 22.2559 88.2637 22.2559C88.7832 22.2559 89.1758 22.043 89.4414 21.6172C89.707 21.1914 89.8398 20.5605 89.8398 19.7246ZM86.6699 17.2754C86.8418 16.9551 87.0781 16.709 87.3789 16.5371C87.6836 16.3652 88.0352 16.2793 88.4336 16.2793C89.2227 16.2793 89.8438 16.584 90.2969 17.1934C90.75 17.7988 90.9766 18.6348 90.9766 19.7012C90.9766 20.7832 90.748 21.6328 90.291 22.25C89.8379 22.8633 89.2148 23.1699 88.4219 23.1699C88.0312 23.1699 87.6855 23.0859 87.3848 22.918C87.0879 22.7461 86.8496 22.498 86.6699 22.1738V23H85.5918V13.8828H86.6699V17.2754ZM97.498 14.4453V15.5352C97.252 15.3906 96.9902 15.2812 96.7129 15.207C96.4355 15.1289 96.1465 15.0898 95.8457 15.0898C95.0957 15.0898 94.5273 15.373 94.1406 15.9395C93.7539 16.502 93.5605 17.332 93.5605 18.4297C93.748 18.0391 94.0078 17.7402 94.3398 17.5332C94.6719 17.3223 95.0527 17.2168 95.4824 17.2168C96.3262 17.2168 96.9785 17.4766 97.4395 17.9961C97.9043 18.5117 98.1367 19.2441 98.1367 20.1934C98.1367 21.1387 97.8984 21.8711 97.4219 22.3906C96.9453 22.9102 96.2754 23.1699 95.4121 23.1699C94.3965 23.1699 93.6523 22.8066 93.1797 22.0801C92.707 21.3496 92.4707 20.2012 92.4707 18.6348C92.4707 17.1582 92.7539 16.0332 93.3203 15.2598C93.8906 14.4824 94.7148 14.0938 95.793 14.0938C96.082 14.0938 96.3711 14.125 96.6602 14.1875C96.9492 14.2461 97.2285 14.332 97.498 14.4453ZM95.3887 18.1426C94.8848 18.1426 94.4883 18.3242 94.1992 18.6875C93.9102 19.0508 93.7656 19.5527 93.7656 20.1934C93.7656 20.834 93.9102 21.3359 94.1992 21.6992C94.4883 22.0625 94.8848 22.2441 95.3887 22.2441C95.9121 22.2441 96.3066 22.0723 96.5723 21.7285C96.8379 21.3809 96.9707 20.8691 96.9707 20.1934C96.9707 19.5137 96.8379 19.002 96.5723 18.6582C96.3066 18.3145 95.9121 18.1426 95.3887 18.1426ZM101.201 20.6328H103.264V23H101.201V20.6328ZM108.432 20.6328H110.494V23H108.432V20.6328ZM115.662 20.6328H117.725V23H115.662V20.6328ZM122.893 20.6328H124.955V23H122.893V20.6328ZM132.15 15.3301L129.391 19.9531H132.15V15.3301ZM131.957 14.252H133.328V19.9531H134.494V20.9141H133.328V23H132.15V20.9141H128.441V19.7949L131.957 14.252ZM138.684 14.123C139.617 14.123 140.322 14.5039 140.799 15.2656C141.279 16.0273 141.52 17.1543 141.52 18.6465C141.52 20.1387 141.279 21.2656 140.799 22.0273C140.322 22.7891 139.617 23.1699 138.684 23.1699C137.75 23.1699 137.045 22.7891 136.568 22.0273C136.092 21.2656 135.854 20.1387 135.854 18.6465C135.854 17.1543 136.092 16.0273 136.568 15.2656C137.045 14.5039 137.75 14.123 138.684 14.123ZM138.684 22.2324C139.238 22.2324 139.65 21.9375 139.92 21.3477C140.193 20.7578 140.33 19.8574 140.33 18.6465C140.33 18.002 140.291 17.4199 140.213 16.9004L137.424 21.2656C137.717 21.9102 138.137 22.2324 138.684 22.2324ZM138.684 15.0605C138.133 15.0605 137.721 15.3555 137.447 15.9453C137.178 16.5352 137.043 17.4355 137.043 18.6465C137.043 19.1973 137.08 19.7129 137.154 20.1934L139.885 15.8398C139.588 15.3203 139.188 15.0605 138.684 15.0605ZM146.418 19.7012H146.061C145.432 19.7012 144.957 19.8125 144.637 20.0352C144.32 20.2539 144.162 20.582 144.162 21.0195C144.162 21.4141 144.281 21.7207 144.52 21.9395C144.758 22.1582 145.088 22.2676 145.51 22.2676C146.104 22.2676 146.57 22.0625 146.91 21.6523C147.25 21.2383 147.422 20.668 147.426 19.9414V19.7012H146.418ZM148.51 19.2559V23H147.426V22.0273C147.195 22.418 146.904 22.707 146.553 22.8945C146.205 23.0781 145.781 23.1699 145.281 23.1699C144.613 23.1699 144.08 22.9824 143.682 22.6074C143.283 22.2285 143.084 21.7227 143.084 21.0898C143.084 20.3594 143.328 19.8047 143.816 19.4258C144.309 19.0469 145.029 18.8574 145.979 18.8574H147.426V18.6875C147.422 18.1641 147.289 17.7852 147.027 17.5508C146.766 17.3125 146.348 17.1934 145.773 17.1934C145.406 17.1934 145.035 17.2461 144.66 17.3516C144.285 17.457 143.92 17.6113 143.564 17.8145V16.7363C143.963 16.584 144.344 16.4707 144.707 16.3965C145.074 16.3184 145.43 16.2793 145.773 16.2793C146.316 16.2793 146.779 16.3594 147.162 16.5195C147.549 16.6797 147.861 16.9199 148.1 17.2402C148.248 17.4355 148.354 17.6777 148.416 17.9668C148.479 18.252 148.51 18.6816 148.51 19.2559ZM153.145 14.123C154.078 14.123 154.783 14.5039 155.26 15.2656C155.74 16.0273 155.98 17.1543 155.98 18.6465C155.98 20.1387 155.74 21.2656 155.26 22.0273C154.783 22.7891 154.078 23.1699 153.145 23.1699C152.211 23.1699 151.506 22.7891 151.029 22.0273C150.553 21.2656 150.314 20.1387 150.314 18.6465C150.314 17.1543 150.553 16.0273 151.029 15.2656C151.506 14.5039 152.211 14.123 153.145 14.123ZM153.145 22.2324C153.699 22.2324 154.111 21.9375 154.381 21.3477C154.654 20.7578 154.791 19.8574 154.791 18.6465C154.791 18.002 154.752 17.4199 154.674 16.9004L151.885 21.2656C152.178 21.9102 152.598 22.2324 153.145 22.2324ZM153.145 15.0605C152.594 15.0605 152.182 15.3555 151.908 15.9453C151.639 16.5352 151.504 17.4355 151.504 18.6465C151.504 19.1973 151.541 19.7129 151.615 20.1934L154.346 15.8398C154.049 15.3203 153.648 15.0605 153.145 15.0605Z" fill="black"/>
<path d="M187.059 19.3613C187.059 20.6309 186.842 21.5742 186.408 22.1914C185.975 22.8086 185.297 23.1172 184.375 23.1172C183.465 23.1172 182.791 22.8164 182.354 22.2148C181.916 21.6094 181.689 20.707 181.674 19.5078V18.0605C181.674 16.8066 181.891 15.875 182.324 15.2656C182.758 14.6562 183.438 14.3516 184.363 14.3516C185.281 14.3516 185.957 14.6465 186.391 15.2363C186.824 15.8223 187.047 16.7285 187.059 17.9551V19.3613ZM185.975 17.8789C185.975 16.9609 185.846 16.293 185.588 15.875C185.33 15.4531 184.922 15.2422 184.363 15.2422C183.809 15.2422 183.404 15.4512 183.15 15.8691C182.896 16.2871 182.766 16.9297 182.758 17.7969V19.5312C182.758 20.4531 182.891 21.1348 183.156 21.5762C183.426 22.0137 183.832 22.2324 184.375 22.2324C184.91 22.2324 185.307 22.0254 185.564 21.6113C185.826 21.1973 185.963 20.5449 185.975 19.6543V17.8789ZM188.582 22.4316C188.582 22.2441 188.637 22.0879 188.746 21.9629C188.859 21.8379 189.027 21.7754 189.25 21.7754C189.473 21.7754 189.641 21.8379 189.754 21.9629C189.871 22.0879 189.93 22.2441 189.93 22.4316C189.93 22.6113 189.871 22.7617 189.754 22.8828C189.641 23.0039 189.473 23.0645 189.25 23.0645C189.027 23.0645 188.859 23.0039 188.746 22.8828C188.637 22.7617 188.582 22.6113 188.582 22.4316ZM195.174 23H194.084V15.7754L191.898 16.5781V15.5938L195.004 14.4277H195.174V23ZM203.699 19.3613C203.699 20.6309 203.482 21.5742 203.049 22.1914C202.615 22.8086 201.938 23.1172 201.016 23.1172C200.105 23.1172 199.432 22.8164 198.994 22.2148C198.557 21.6094 198.33 20.707 198.314 19.5078V18.0605C198.314 16.8066 198.531 15.875 198.965 15.2656C199.398 14.6562 200.078 14.3516 201.004 14.3516C201.922 14.3516 202.598 14.6465 203.031 15.2363C203.465 15.8223 203.688 16.7285 203.699 17.9551V19.3613ZM202.615 17.8789C202.615 16.9609 202.486 16.293 202.229 15.875C201.971 15.4531 201.562 15.2422 201.004 15.2422C200.449 15.2422 200.045 15.4512 199.791 15.8691C199.537 16.2871 199.406 16.9297 199.398 17.7969V19.5312C199.398 20.4531 199.531 21.1348 199.797 21.5762C200.066 22.0137 200.473 22.2324 201.016 22.2324C201.551 22.2324 201.947 22.0254 202.205 21.6113C202.467 21.1973 202.604 20.5449 202.615 19.6543V17.8789ZM210.438 19.3613C210.438 20.6309 210.221 21.5742 209.787 22.1914C209.354 22.8086 208.676 23.1172 207.754 23.1172C206.844 23.1172 206.17 22.8164 205.732 22.2148C205.295 21.6094 205.068 20.707 205.053 19.5078V18.0605C205.053 16.8066 205.27 15.875 205.703 15.2656C206.137 14.6562 206.816 14.3516 207.742 14.3516C208.66 14.3516 209.336 14.6465 209.77 15.2363C210.203 15.8223 210.426 16.7285 210.438 17.9551V19.3613ZM209.354 17.8789C209.354 16.9609 209.225 16.293 208.967 15.875C208.709 15.4531 208.301 15.2422 207.742 15.2422C207.188 15.2422 206.783 15.4512 206.529 15.8691C206.275 16.2871 206.145 16.9297 206.137 17.7969V19.5312C206.137 20.4531 206.27 21.1348 206.535 21.5762C206.805 22.0137 207.211 22.2324 207.754 22.2324C208.289 22.2324 208.686 22.0254 208.943 21.6113C209.205 21.1973 209.342 20.5449 209.354 19.6543V17.8789ZM217.176 19.3613C217.176 20.6309 216.959 21.5742 216.525 22.1914C216.092 22.8086 215.414 23.1172 214.492 23.1172C213.582 23.1172 212.908 22.8164 212.471 22.2148C212.033 21.6094 211.807 20.707 211.791 19.5078V18.0605C211.791 16.8066 212.008 15.875 212.441 15.2656C212.875 14.6562 213.555 14.3516 214.48 14.3516C215.398 14.3516 216.074 14.6465 216.508 15.2363C216.941 15.8223 217.164 16.7285 217.176 17.9551V19.3613ZM216.092 17.8789C216.092 16.9609 215.963 16.293 215.705 15.875C215.447 15.4531 215.039 15.2422 214.48 15.2422C213.926 15.2422 213.521 15.4512 213.268 15.8691C213.014 16.2871 212.883 16.9297 212.875 17.7969V19.5312C212.875 20.4531 213.008 21.1348 213.273 21.5762C213.543 22.0137 213.949 22.2324 214.492 22.2324C215.027 22.2324 215.424 22.0254 215.682 21.6113C215.943 21.1973 216.08 20.5449 216.092 19.6543V17.8789ZM223.914 19.3613C223.914 20.6309 223.697 21.5742 223.264 22.1914C222.83 22.8086 222.152 23.1172 221.23 23.1172C220.32 23.1172 219.646 22.8164 219.209 22.2148C218.771 21.6094 218.545 20.707 218.529 19.5078V18.0605C218.529 16.8066 218.746 15.875 219.18 15.2656C219.613 14.6562 220.293 14.3516 221.219 14.3516C222.137 14.3516 222.812 14.6465 223.246 15.2363C223.68 15.8223 223.902 16.7285 223.914 17.9551V19.3613ZM222.83 17.8789C222.83 16.9609 222.701 16.293 222.443 15.875C222.186 15.4531 221.777 15.2422 221.219 15.2422C220.664 15.2422 220.26 15.4512 220.006 15.8691C219.752 16.2871 219.621 16.9297 219.613 17.7969V19.5312C219.613 20.4531 219.746 21.1348 220.012 21.5762C220.281 22.0137 220.688 22.2324 221.23 22.2324C221.766 22.2324 222.162 22.0254 222.42 21.6113C222.682 21.1973 222.818 20.5449 222.83 19.6543V17.8789ZM230.652 19.3613C230.652 20.6309 230.436 21.5742 230.002 22.1914C229.568 22.8086 228.891 23.1172 227.969 23.1172C227.059 23.1172 226.385 22.8164 225.947 22.2148C225.51 21.6094 225.283 20.707 225.268 19.5078V18.0605C225.268 16.8066 225.484 15.875 225.918 15.2656C226.352 14.6562 227.031 14.3516 227.957 14.3516C228.875 14.3516 229.551 14.6465 229.984 15.2363C230.418 15.8223 230.641 16.7285 230.652 17.9551V19.3613ZM229.568 17.8789C229.568 16.9609 229.439 16.293 229.182 15.875C228.924 15.4531 228.516 15.2422 227.957 15.2422C227.402 15.2422 226.998 15.4512 226.744 15.8691C226.49 16.2871 226.359 16.9297 226.352 17.7969V19.5312C226.352 20.4531 226.484 21.1348 226.75 21.5762C227.02 22.0137 227.426 22.2324 227.969 22.2324C228.504 22.2324 228.9 22.0254 229.158 21.6113C229.42 21.1973 229.557 20.5449 229.568 19.6543V17.8789ZM240.121 19.0566H236.424V22.0801H240.719V23H235.299V14.4688H240.66V15.3945H236.424V18.1367H240.121V19.0566ZM248.131 15.3945H245.389V23H244.27V15.3945H241.533V14.4688H248.131V15.3945ZM255.953 23H254.822V19.0566H250.521V23H249.396V14.4688H250.521V18.1367H254.822V14.4688H255.953V23Z" fill="black"/>
<circle cx="40" cy="19" r="6" fill="white" stroke="#00B812" stroke-width="2"/>
<path d="M55.2852 133.207H56.0996C56.6113 133.199 57.0137 133.064 57.3066 132.803C57.5996 132.541 57.7461 132.188 57.7461 131.742C57.7461 130.742 57.248 130.242 56.252 130.242C55.7832 130.242 55.4082 130.377 55.127 130.646C54.8496 130.912 54.7109 131.266 54.7109 131.707H53.627C53.627 131.031 53.873 130.471 54.3652 130.025C54.8613 129.576 55.4902 129.352 56.252 129.352C57.0566 129.352 57.6875 129.564 58.1445 129.99C58.6016 130.416 58.8301 131.008 58.8301 131.766C58.8301 132.137 58.709 132.496 58.4668 132.844C58.2285 133.191 57.9023 133.451 57.4883 133.623C57.957 133.771 58.3184 134.018 58.5723 134.361C58.8301 134.705 58.959 135.125 58.959 135.621C58.959 136.387 58.709 136.994 58.209 137.443C57.709 137.893 57.0586 138.117 56.2578 138.117C55.457 138.117 54.8047 137.9 54.3008 137.467C53.8008 137.033 53.5508 136.461 53.5508 135.75H54.6406C54.6406 136.199 54.7871 136.559 55.0801 136.828C55.373 137.098 55.7656 137.232 56.2578 137.232C56.7812 137.232 57.1816 137.096 57.459 136.822C57.7363 136.549 57.875 136.156 57.875 135.645C57.875 135.148 57.7227 134.768 57.418 134.502C57.1133 134.236 56.6738 134.1 56.0996 134.092H55.2852V133.207Z" fill="black"/>
<path d="M73.6094 129.123C74.543 129.123 75.248 129.504 75.7246 130.266C76.2051 131.027 76.4453 132.154 76.4453 133.646C76.4453 135.139 76.2051 136.266 75.7246 137.027C75.248 137.789 74.543 138.17 73.6094 138.17C72.6758 138.17 71.9707 137.789 71.4941 137.027C71.0176 136.266 70.7793 135.139 70.7793 133.646C70.7793 132.154 71.0176 131.027 71.4941 130.266C71.9707 129.504 72.6758 129.123 73.6094 129.123ZM73.6094 137.232C74.1641 137.232 74.5762 136.938 74.8457 136.348C75.1191 135.758 75.2559 134.857 75.2559 133.646C75.2559 133.002 75.2168 132.42 75.1387 131.9L72.3496 136.266C72.6426 136.91 73.0625 137.232 73.6094 137.232ZM73.6094 130.061C73.0586 130.061 72.6465 130.355 72.373 130.945C72.1035 131.535 71.9688 132.436 71.9688 133.646C71.9688 134.197 72.0059 134.713 72.0801 135.193L74.8105 130.84C74.5137 130.32 74.1133 130.061 73.6094 130.061ZM83.7812 131.438L81.4316 134.578L84.0098 138H82.7617L80.8398 135.369L78.9238 138H77.6758L80.2539 134.578L77.9043 131.438H79.0996L80.8398 133.811L82.5684 131.438H83.7812ZM85.0469 131.438H86.166L88.0703 136.945L89.9805 131.438H91.0996L88.7676 138H87.3789L85.0469 131.438ZM97.498 129.445V130.535C97.252 130.391 96.9902 130.281 96.7129 130.207C96.4355 130.129 96.1465 130.09 95.8457 130.09C95.0957 130.09 94.5273 130.373 94.1406 130.939C93.7539 131.502 93.5605 132.332 93.5605 133.43C93.748 133.039 94.0078 132.74 94.3398 132.533C94.6719 132.322 95.0527 132.217 95.4824 132.217C96.3262 132.217 96.9785 132.477 97.4395 132.996C97.9043 133.512 98.1367 134.244 98.1367 135.193C98.1367 136.139 97.8984 136.871 97.4219 137.391C96.9453 137.91 96.2754 138.17 95.4121 138.17C94.3965 138.17 93.6523 137.807 93.1797 137.08C92.707 136.35 92.4707 135.201 92.4707 133.635C92.4707 132.158 92.7539 131.033 93.3203 130.26C93.8906 129.482 94.7148 129.094 95.793 129.094C96.082 129.094 96.3711 129.125 96.6602 129.188C96.9492 129.246 97.2285 129.332 97.498 129.445ZM95.3887 133.143C94.8848 133.143 94.4883 133.324 94.1992 133.688C93.9102 134.051 93.7656 134.553 93.7656 135.193C93.7656 135.834 93.9102 136.336 94.1992 136.699C94.4883 137.062 94.8848 137.244 95.3887 137.244C95.9121 137.244 96.3066 137.072 96.5723 136.729C96.8379 136.381 96.9707 135.869 96.9707 135.193C96.9707 134.514 96.8379 134.002 96.5723 133.658C96.3066 133.314 95.9121 133.143 95.3887 133.143ZM101.201 135.633H103.264V138H101.201V135.633ZM108.432 135.633H110.494V138H108.432V135.633ZM115.662 135.633H117.725V138H115.662V135.633ZM122.893 135.633H124.955V138H122.893V135.633ZM131.453 129.123C132.387 129.123 133.092 129.504 133.568 130.266C134.049 131.027 134.289 132.154 134.289 133.646C134.289 135.139 134.049 136.266 133.568 137.027C133.092 137.789 132.387 138.17 131.453 138.17C130.52 138.17 129.814 137.789 129.338 137.027C128.861 136.266 128.623 135.139 128.623 133.646C128.623 132.154 128.861 131.027 129.338 130.266C129.814 129.504 130.52 129.123 131.453 129.123ZM131.453 137.232C132.008 137.232 132.42 136.938 132.689 136.348C132.963 135.758 133.1 134.857 133.1 133.646C133.1 133.002 133.061 132.42 132.982 131.9L130.193 136.266C130.486 136.91 130.906 137.232 131.453 137.232ZM131.453 130.061C130.902 130.061 130.49 130.355 130.217 130.945C129.947 131.535 129.812 132.436 129.812 133.646C129.812 134.197 129.85 134.713 129.924 135.193L132.654 130.84C132.357 130.32 131.957 130.061 131.453 130.061ZM140.102 132.275V128.883H141.18V138H140.102V137.174C139.922 137.498 139.682 137.746 139.381 137.918C139.084 138.086 138.74 138.17 138.35 138.17C137.557 138.17 136.932 137.863 136.475 137.25C136.021 136.633 135.795 135.783 135.795 134.701C135.795 133.635 136.023 132.799 136.48 132.193C136.938 131.584 137.561 131.279 138.35 131.279C138.744 131.279 139.092 131.365 139.393 131.537C139.693 131.705 139.93 131.951 140.102 132.275ZM136.932 134.725C136.932 135.561 137.064 136.191 137.33 136.617C137.596 137.043 137.988 137.256 138.508 137.256C139.027 137.256 139.422 137.041 139.691 136.611C139.965 136.182 140.102 135.553 140.102 134.725C140.102 133.893 139.965 133.264 139.691 132.838C139.422 132.408 139.027 132.193 138.508 132.193C137.988 132.193 137.596 132.406 137.33 132.832C137.064 133.258 136.932 133.889 136.932 134.725ZM147.332 135.891C147.152 136.348 146.924 136.949 146.646 137.695C146.26 138.727 146 139.355 145.867 139.582C145.688 139.887 145.463 140.115 145.193 140.268C144.924 140.42 144.609 140.496 144.25 140.496H143.383V139.594H144.021C144.338 139.594 144.586 139.502 144.766 139.318C144.945 139.135 145.174 138.66 145.451 137.895L142.914 131.438H144.057L146.002 136.57L147.918 131.438H149.061L147.332 135.891ZM150.748 129.252H155.178V130.248H151.826V132.398C151.994 132.336 152.162 132.291 152.33 132.264C152.502 132.232 152.674 132.217 152.846 132.217C153.752 132.217 154.471 132.484 155.002 133.02C155.533 133.555 155.799 134.279 155.799 135.193C155.799 136.115 155.52 136.842 154.961 137.373C154.406 137.904 153.646 138.17 152.682 138.17C152.217 138.17 151.791 138.139 151.404 138.076C151.021 138.014 150.678 137.92 150.373 137.795V136.594C150.732 136.789 151.094 136.936 151.457 137.033C151.82 137.127 152.191 137.174 152.57 137.174C153.223 137.174 153.725 137.002 154.076 136.658C154.432 136.314 154.609 135.826 154.609 135.193C154.609 134.568 154.426 134.082 154.059 133.734C153.695 133.387 153.188 133.213 152.535 133.213C152.219 133.213 151.91 133.25 151.609 133.324C151.309 133.395 151.021 133.502 150.748 133.646V129.252Z" fill="black"/>
<path d="M187.059 134.361C187.059 135.631 186.842 136.574 186.408 137.191C185.975 137.809 185.297 138.117 184.375 138.117C183.465 138.117 182.791 137.816 182.354 137.215C181.916 136.609 181.689 135.707 181.674 134.508V133.061C181.674 131.807 181.891 130.875 182.324 130.266C182.758 129.656 183.438 129.352 184.363 129.352C185.281 129.352 185.957 129.646 186.391 130.236C186.824 130.822 187.047 131.729 187.059 132.955V134.361ZM185.975 132.879C185.975 131.961 185.846 131.293 185.588 130.875C185.33 130.453 184.922 130.242 184.363 130.242C183.809 130.242 183.404 130.451 183.15 130.869C182.896 131.287 182.766 131.93 182.758 132.797V134.531C182.758 135.453 182.891 136.135 183.156 136.576C183.426 137.014 183.832 137.232 184.375 137.232C184.91 137.232 185.307 137.025 185.564 136.611C185.826 136.197 185.963 135.545 185.975 134.654V132.879ZM188.582 137.432C188.582 137.244 188.637 137.088 188.746 136.963C188.859 136.838 189.027 136.775 189.25 136.775C189.473 136.775 189.641 136.838 189.754 136.963C189.871 137.088 189.93 137.244 189.93 137.432C189.93 137.611 189.871 137.762 189.754 137.883C189.641 138.004 189.473 138.064 189.25 138.064C189.027 138.064 188.859 138.004 188.746 137.883C188.637 137.762 188.582 137.611 188.582 137.432ZM195.174 138H194.084V130.775L191.898 131.578V130.594L195.004 129.428H195.174V138ZM203.699 134.361C203.699 135.631 203.482 136.574 203.049 137.191C202.615 137.809 201.938 138.117 201.016 138.117C200.105 138.117 199.432 137.816 198.994 137.215C198.557 136.609 198.33 135.707 198.314 134.508V133.061C198.314 131.807 198.531 130.875 198.965 130.266C199.398 129.656 200.078 129.352 201.004 129.352C201.922 129.352 202.598 129.646 203.031 130.236C203.465 130.822 203.688 131.729 203.699 132.955V134.361ZM202.615 132.879C202.615 131.961 202.486 131.293 202.229 130.875C201.971 130.453 201.562 130.242 201.004 130.242C200.449 130.242 200.045 130.451 199.791 130.869C199.537 131.287 199.406 131.93 199.398 132.797V134.531C199.398 135.453 199.531 136.135 199.797 136.576C200.066 137.014 200.473 137.232 201.016 137.232C201.551 137.232 201.947 137.025 202.205 136.611C202.467 136.197 202.604 135.545 202.615 134.654V132.879ZM210.438 134.361C210.438 135.631 210.221 136.574 209.787 137.191C209.354 137.809 208.676 138.117 207.754 138.117C206.844 138.117 206.17 137.816 205.732 137.215C205.295 136.609 205.068 135.707 205.053 134.508V133.061C205.053 131.807 205.27 130.875 205.703 130.266C206.137 129.656 206.816 129.352 207.742 129.352C208.66 129.352 209.336 129.646 209.77 130.236C210.203 130.822 210.426 131.729 210.438 132.955V134.361ZM209.354 132.879C209.354 131.961 209.225 131.293 208.967 130.875C208.709 130.453 208.301 130.242 207.742 130.242C207.188 130.242 206.783 130.451 206.529 130.869C206.275 131.287 206.145 131.93 206.137 132.797V134.531C206.137 135.453 206.27 136.135 206.535 136.576C206.805 137.014 207.211 137.232 207.754 137.232C208.289 137.232 208.686 137.025 208.943 136.611C209.205 136.197 209.342 135.545 209.354 134.654V132.879ZM217.176 134.361C217.176 135.631 216.959 136.574 216.525 137.191C216.092 137.809 215.414 138.117 214.492 138.117C213.582 138.117 212.908 137.816 212.471 137.215C212.033 136.609 211.807 135.707 211.791 134.508V133.061C211.791 131.807 212.008 130.875 212.441 130.266C212.875 129.656 213.555 129.352 214.48 129.352C215.398 129.352 216.074 129.646 216.508 130.236C216.941 130.822 217.164 131.729 217.176 132.955V134.361ZM216.092 132.879C216.092 131.961 215.963 131.293 215.705 130.875C215.447 130.453 215.039 130.242 214.48 130.242C213.926 130.242 213.521 130.451 213.268 130.869C213.014 131.287 212.883 131.93 212.875 132.797V134.531C212.875 135.453 213.008 136.135 213.273 136.576C213.543 137.014 213.949 137.232 214.492 137.232C215.027 137.232 215.424 137.025 215.682 136.611C215.943 136.197 216.08 135.545 216.092 134.654V132.879ZM223.914 134.361C223.914 135.631 223.697 136.574 223.264 137.191C222.83 137.809 222.152 138.117 221.23 138.117C220.32 138.117 219.646 137.816 219.209 137.215C218.771 136.609 218.545 135.707 218.529 134.508V133.061C218.529 131.807 218.746 130.875 219.18 130.266C219.613 129.656 220.293 129.352 221.219 129.352C222.137 129.352 222.812 129.646 223.246 130.236C223.68 130.822 223.902 131.729 223.914 132.955V134.361ZM222.83 132.879C222.83 131.961 222.701 131.293 222.443 130.875C222.186 130.453 221.777 130.242 221.219 130.242C220.664 130.242 220.26 130.451 220.006 130.869C219.752 131.287 219.621 131.93 219.613 132.797V134.531C219.613 135.453 219.746 136.135 220.012 136.576C220.281 137.014 220.688 137.232 221.23 137.232C221.766 137.232 222.162 137.025 222.42 136.611C222.682 136.197 222.818 135.545 222.83 134.654V132.879ZM230.652 134.361C230.652 135.631 230.436 136.574 230.002 137.191C229.568 137.809 228.891 138.117 227.969 138.117C227.059 138.117 226.385 137.816 225.947 137.215C225.51 136.609 225.283 135.707 225.268 134.508V133.061C225.268 131.807 225.484 130.875 225.918 130.266C226.352 129.656 227.031 129.352 227.957 129.352C228.875 129.352 229.551 129.646 229.984 130.236C230.418 130.822 230.641 131.729 230.652 132.955V134.361ZM229.568 132.879C229.568 131.961 229.439 131.293 229.182 130.875C228.924 130.453 228.516 130.242 227.957 130.242C227.402 130.242 226.998 130.451 226.744 130.869C226.49 131.287 226.359 131.93 226.352 132.797V134.531C226.352 135.453 226.484 136.135 226.75 136.576C227.02 137.014 227.426 137.232 227.969 137.232C228.504 137.232 228.9 137.025 229.158 136.611C229.42 136.197 229.557 135.545 229.568 134.654V132.879ZM240.121 134.057H236.424V137.08H240.719V138H235.299V129.469H240.66V130.395H236.424V133.137H240.121V134.057ZM248.131 130.395H245.389V138H244.27V130.395H241.533V129.469H248.131V130.395ZM255.953 138H254.822V134.057H250.521V138H249.396V129.469H250.521V133.137H254.822V129.469H255.953V138Z" fill="black"/>
<circle cx="40" cy="134" r="6" fill="white" stroke="#00B812" stroke-width="2"/>
<path d="M55.2852 94.207H56.0996C56.6113 94.1992 57.0137 94.0645 57.3066 93.8027C57.5996 93.541 57.7461 93.1875 57.7461 92.7422C57.7461 91.7422 57.248 91.2422 56.252 91.2422C55.7832 91.2422 55.4082 91.377 55.127 91.6465C54.8496 91.9121 54.7109 92.2656 54.7109 92.707H53.627C53.627 92.0312 53.873 91.4707 54.3652 91.0254C54.8613 90.5762 55.4902 90.3516 56.252 90.3516C57.0566 90.3516 57.6875 90.5645 58.1445 90.9902C58.6016 91.416 58.8301 92.0078 58.8301 92.7656C58.8301 93.1367 58.709 93.4961 58.4668 93.8438C58.2285 94.1914 57.9023 94.4512 57.4883 94.623C57.957 94.7715 58.3184 95.0176 58.5723 95.3613C58.8301 95.7051 58.959 96.125 58.959 96.6211C58.959 97.3867 58.709 97.9941 58.209 98.4434C57.709 98.8926 57.0586 99.1172 56.2578 99.1172C55.457 99.1172 54.8047 98.9004 54.3008 98.4668C53.8008 98.0332 53.5508 97.4609 53.5508 96.75H54.6406C54.6406 97.1992 54.7871 97.5586 55.0801 97.8281C55.373 98.0977 55.7656 98.2324 56.2578 98.2324C56.7812 98.2324 57.1816 98.0957 57.459 97.8223C57.7363 97.5488 57.875 97.1562 57.875 96.6445C57.875 96.1484 57.7227 95.7676 57.418 95.502C57.1133 95.2363 56.6738 95.0996 56.0996 95.0918H55.2852V94.207Z" fill="black"/>
<path d="M73.6094 90.123C74.543 90.123 75.248 90.5039 75.7246 91.2656C76.2051 92.0273 76.4453 93.1543 76.4453 94.6465C76.4453 96.1387 76.2051 97.2656 75.7246 98.0273C75.248 98.7891 74.543 99.1699 73.6094 99.1699C72.6758 99.1699 71.9707 98.7891 71.4941 98.0273C71.0176 97.2656 70.7793 96.1387 70.7793 94.6465C70.7793 93.1543 71.0176 92.0273 71.4941 91.2656C71.9707 90.5039 72.6758 90.123 73.6094 90.123ZM73.6094 98.2324C74.1641 98.2324 74.5762 97.9375 74.8457 97.3477C75.1191 96.7578 75.2559 95.8574 75.2559 94.6465C75.2559 94.002 75.2168 93.4199 75.1387 92.9004L72.3496 97.2656C72.6426 97.9102 73.0625 98.2324 73.6094 98.2324ZM73.6094 91.0605C73.0586 91.0605 72.6465 91.3555 72.373 91.9453C72.1035 92.5352 71.9688 93.4355 71.9688 94.6465C71.9688 95.1973 72.0059 95.7129 72.0801 96.1934L74.8105 91.8398C74.5137 91.3203 74.1133 91.0605 73.6094 91.0605ZM83.7812 92.4375L81.4316 95.5781L84.0098 99H82.7617L80.8398 96.3691L78.9238 99H77.6758L80.2539 95.5781L77.9043 92.4375H79.0996L80.8398 94.8105L82.5684 92.4375H83.7812ZM85.0469 92.4375H86.166L88.0703 97.9453L89.9805 92.4375H91.0996L88.7676 99H87.3789L85.0469 92.4375ZM97.498 90.4453V91.5352C97.252 91.3906 96.9902 91.2812 96.7129 91.207C96.4355 91.1289 96.1465 91.0898 95.8457 91.0898C95.0957 91.0898 94.5273 91.373 94.1406 91.9395C93.7539 92.502 93.5605 93.332 93.5605 94.4297C93.748 94.0391 94.0078 93.7402 94.3398 93.5332C94.6719 93.3223 95.0527 93.2168 95.4824 93.2168C96.3262 93.2168 96.9785 93.4766 97.4395 93.9961C97.9043 94.5117 98.1367 95.2441 98.1367 96.1934C98.1367 97.1387 97.8984 97.8711 97.4219 98.3906C96.9453 98.9102 96.2754 99.1699 95.4121 99.1699C94.3965 99.1699 93.6523 98.8066 93.1797 98.0801C92.707 97.3496 92.4707 96.2012 92.4707 94.6348C92.4707 93.1582 92.7539 92.0332 93.3203 91.2598C93.8906 90.4824 94.7148 90.0938 95.793 90.0938C96.082 90.0938 96.3711 90.125 96.6602 90.1875C96.9492 90.2461 97.2285 90.332 97.498 90.4453ZM95.3887 94.1426C94.8848 94.1426 94.4883 94.3242 94.1992 94.6875C93.9102 95.0508 93.7656 95.5527 93.7656 96.1934C93.7656 96.834 93.9102 97.3359 94.1992 97.6992C94.4883 98.0625 94.8848 98.2441 95.3887 98.2441C95.9121 98.2441 96.3066 98.0723 96.5723 97.7285C96.8379 97.3809 96.9707 96.8691 96.9707 96.1934C96.9707 95.5137 96.8379 95.002 96.5723 94.6582C96.3066 94.3145 95.9121 94.1426 95.3887 94.1426ZM101.201 96.6328H103.264V99H101.201V96.6328ZM108.432 96.6328H110.494V99H108.432V96.6328ZM115.662 96.6328H117.725V99H115.662V96.6328ZM122.893 96.6328H124.955V99H122.893V96.6328ZM131.453 90.123C132.387 90.123 133.092 90.5039 133.568 91.2656C134.049 92.0273 134.289 93.1543 134.289 94.6465C134.289 96.1387 134.049 97.2656 133.568 98.0273C133.092 98.7891 132.387 99.1699 131.453 99.1699C130.52 99.1699 129.814 98.7891 129.338 98.0273C128.861 97.2656 128.623 96.1387 128.623 94.6465C128.623 93.1543 128.861 92.0273 129.338 91.2656C129.814 90.5039 130.52 90.123 131.453 90.123ZM131.453 98.2324C132.008 98.2324 132.42 97.9375 132.689 97.3477C132.963 96.7578 133.1 95.8574 133.1 94.6465C133.1 94.002 133.061 93.4199 132.982 92.9004L130.193 97.2656C130.486 97.9102 130.906 98.2324 131.453 98.2324ZM131.453 91.0605C130.902 91.0605 130.49 91.3555 130.217 91.9453C129.947 92.5352 129.812 93.4355 129.812 94.6465C129.812 95.1973 129.85 95.7129 129.924 96.1934L132.654 91.8398C132.357 91.3203 131.957 91.0605 131.453 91.0605ZM140.102 93.2754V89.8828H141.18V99H140.102V98.1738C139.922 98.498 139.682 98.7461 139.381 98.918C139.084 99.0859 138.74 99.1699 138.35 99.1699C137.557 99.1699 136.932 98.8633 136.475 98.25C136.021 97.6328 135.795 96.7832 135.795 95.7012C135.795 94.6348 136.023 93.7988 136.48 93.1934C136.938 92.584 137.561 92.2793 138.35 92.2793C138.744 92.2793 139.092 92.3652 139.393 92.5371C139.693 92.7051 139.93 92.9512 140.102 93.2754ZM136.932 95.7246C136.932 96.5605 137.064 97.1914 137.33 97.6172C137.596 98.043 137.988 98.2559 138.508 98.2559C139.027 98.2559 139.422 98.041 139.691 97.6113C139.965 97.1816 140.102 96.5527 140.102 95.7246C140.102 94.8926 139.965 94.2637 139.691 93.8379C139.422 93.4082 139.027 93.1934 138.508 93.1934C137.988 93.1934 137.596 93.4062 137.33 93.832C137.064 94.2578 136.932 94.8887 136.932 95.7246ZM147.332 96.8906C147.152 97.3477 146.924 97.9492 146.646 98.6953C146.26 99.7266 146 100.355 145.867 100.582C145.688 100.887 145.463 101.115 145.193 101.268C144.924 101.42 144.609 101.496 144.25 101.496H143.383V100.594H144.021C144.338 100.594 144.586 100.502 144.766 100.318C144.945 100.135 145.174 99.6602 145.451 98.8945L142.914 92.4375H144.057L146.002 97.5703L147.918 92.4375H149.061L147.332 96.8906ZM150.748 90.252H155.178V91.248H151.826V93.3984C151.994 93.3359 152.162 93.291 152.33 93.2637C152.502 93.2324 152.674 93.2168 152.846 93.2168C153.752 93.2168 154.471 93.4844 155.002 94.0195C155.533 94.5547 155.799 95.2793 155.799 96.1934C155.799 97.1152 155.52 97.8418 154.961 98.373C154.406 98.9043 153.646 99.1699 152.682 99.1699C152.217 99.1699 151.791 99.1387 151.404 99.0762C151.021 99.0137 150.678 98.9199 150.373 98.7949V97.5938C150.732 97.7891 151.094 97.9355 151.457 98.0332C151.82 98.127 152.191 98.1738 152.57 98.1738C153.223 98.1738 153.725 98.002 154.076 97.6582C154.432 97.3145 154.609 96.8262 154.609 96.1934C154.609 95.5684 154.426 95.082 154.059 94.7344C153.695 94.3867 153.188 94.2129 152.535 94.2129C152.219 94.2129 151.91 94.25 151.609 94.3242C151.309 94.3945 151.021 94.502 150.748 94.6465V90.252Z" fill="black"/>
<path d="M187.059 95.3613C187.059 96.6309 186.842 97.5742 186.408 98.1914C185.975 98.8086 185.297 99.1172 184.375 99.1172C183.465 99.1172 182.791 98.8164 182.354 98.2148C181.916 97.6094 181.689 96.707 181.674 95.5078V94.0605C181.674 92.8066 181.891 91.875 182.324 91.2656C182.758 90.6562 183.438 90.3516 184.363 90.3516C185.281 90.3516 185.957 90.6465 186.391 91.2363C186.824 91.8223 187.047 92.7285 187.059 93.9551V95.3613ZM185.975 93.8789C185.975 92.9609 185.846 92.293 185.588 91.875C185.33 91.4531 184.922 91.2422 184.363 91.2422C183.809 91.2422 183.404 91.4512 183.15 91.8691C182.896 92.2871 182.766 92.9297 182.758 93.7969V95.5312C182.758 96.4531 182.891 97.1348 183.156 97.5762C183.426 98.0137 183.832 98.2324 184.375 98.2324C184.91 98.2324 185.307 98.0254 185.564 97.6113C185.826 97.1973 185.963 96.5449 185.975 95.6543V93.8789ZM188.582 98.4316C188.582 98.2441 188.637 98.0879 188.746 97.9629C188.859 97.8379 189.027 97.7754 189.25 97.7754C189.473 97.7754 189.641 97.8379 189.754 97.9629C189.871 98.0879 189.93 98.2441 189.93 98.4316C189.93 98.6113 189.871 98.7617 189.754 98.8828C189.641 99.0039 189.473 99.0645 189.25 99.0645C189.027 99.0645 188.859 99.0039 188.746 98.8828C188.637 98.7617 188.582 98.6113 188.582 98.4316ZM195.174 99H194.084V91.7754L191.898 92.5781V91.5938L195.004 90.4277H195.174V99ZM203.699 95.3613C203.699 96.6309 203.482 97.5742 203.049 98.1914C202.615 98.8086 201.938 99.1172 201.016 99.1172C200.105 99.1172 199.432 98.8164 198.994 98.2148C198.557 97.6094 198.33 96.707 198.314 95.5078V94.0605C198.314 92.8066 198.531 91.875 198.965 91.2656C199.398 90.6562 200.078 90.3516 201.004 90.3516C201.922 90.3516 202.598 90.6465 203.031 91.2363C203.465 91.8223 203.688 92.7285 203.699 93.9551V95.3613ZM202.615 93.8789C202.615 92.9609 202.486 92.293 202.229 91.875C201.971 91.4531 201.562 91.2422 201.004 91.2422C200.449 91.2422 200.045 91.4512 199.791 91.8691C199.537 92.2871 199.406 92.9297 199.398 93.7969V95.5312C199.398 96.4531 199.531 97.1348 199.797 97.5762C200.066 98.0137 200.473 98.2324 201.016 98.2324C201.551 98.2324 201.947 98.0254 202.205 97.6113C202.467 97.1973 202.604 96.5449 202.615 95.6543V93.8789ZM210.438 95.3613C210.438 96.6309 210.221 97.5742 209.787 98.1914C209.354 98.8086 208.676 99.1172 207.754 99.1172C206.844 99.1172 206.17 98.8164 205.732 98.2148C205.295 97.6094 205.068 96.707 205.053 95.5078V94.0605C205.053 92.8066 205.27 91.875 205.703 91.2656C206.137 90.6562 206.816 90.3516 207.742 90.3516C208.66 90.3516 209.336 90.6465 209.77 91.2363C210.203 91.8223 210.426 92.7285 210.438 93.9551V95.3613ZM209.354 93.8789C209.354 92.9609 209.225 92.293 208.967 91.875C208.709 91.4531 208.301 91.2422 207.742 91.2422C207.188 91.2422 206.783 91.4512 206.529 91.8691C206.275 92.2871 206.145 92.9297 206.137 93.7969V95.5312C206.137 96.4531 206.27 97.1348 206.535 97.5762C206.805 98.0137 207.211 98.2324 207.754 98.2324C208.289 98.2324 208.686 98.0254 208.943 97.6113C209.205 97.1973 209.342 96.5449 209.354 95.6543V93.8789ZM217.176 95.3613C217.176 96.6309 216.959 97.5742 216.525 98.1914C216.092 98.8086 215.414 99.1172 214.492 99.1172C213.582 99.1172 212.908 98.8164 212.471 98.2148C212.033 97.6094 211.807 96.707 211.791 95.5078V94.0605C211.791 92.8066 212.008 91.875 212.441 91.2656C212.875 90.6562 213.555 90.3516 214.48 90.3516C215.398 90.3516 216.074 90.6465 216.508 91.2363C216.941 91.8223 217.164 92.7285 217.176 93.9551V95.3613ZM216.092 93.8789C216.092 92.9609 215.963 92.293 215.705 91.875C215.447 91.4531 215.039 91.2422 214.48 91.2422C213.926 91.2422 213.521 91.4512 213.268 91.8691C213.014 92.2871 212.883 92.9297 212.875 93.7969V95.5312C212.875 96.4531 213.008 97.1348 213.273 97.5762C213.543 98.0137 213.949 98.2324 214.492 98.2324C215.027 98.2324 215.424 98.0254 215.682 97.6113C215.943 97.1973 216.08 96.5449 216.092 95.6543V93.8789ZM223.914 95.3613C223.914 96.6309 223.697 97.5742 223.264 98.1914C222.83 98.8086 222.152 99.1172 221.23 99.1172C220.32 99.1172 219.646 98.8164 219.209 98.2148C218.771 97.6094 218.545 96.707 218.529 95.5078V94.0605C218.529 92.8066 218.746 91.875 219.18 91.2656C219.613 90.6562 220.293 90.3516 221.219 90.3516C222.137 90.3516 222.812 90.6465 223.246 91.2363C223.68 91.8223 223.902 92.7285 223.914 93.9551V95.3613ZM222.83 93.8789C222.83 92.9609 222.701 92.293 222.443 91.875C222.186 91.4531 221.777 91.2422 221.219 91.2422C220.664 91.2422 220.26 91.4512 220.006 91.8691C219.752 92.2871 219.621 92.9297 219.613 93.7969V95.5312C219.613 96.4531 219.746 97.1348 220.012 97.5762C220.281 98.0137 220.688 98.2324 221.23 98.2324C221.766 98.2324 222.162 98.0254 222.42 97.6113C222.682 97.1973 222.818 96.5449 222.83 95.6543V93.8789ZM230.652 95.3613C230.652 96.6309 230.436 97.5742 230.002 98.1914C229.568 98.8086 228.891 99.1172 227.969 99.1172C227.059 99.1172 226.385 98.8164 225.947 98.2148C225.51 97.6094 225.283 96.707 225.268 95.5078V94.0605C225.268 92.8066 225.484 91.875 225.918 91.2656C226.352 90.6562 227.031 90.3516 227.957 90.3516C228.875 90.3516 229.551 90.6465 229.984 91.2363C230.418 91.8223 230.641 92.7285 230.652 93.9551V95.3613ZM229.568 93.8789C229.568 92.9609 229.439 92.293 229.182 91.875C228.924 91.4531 228.516 91.2422 227.957 91.2422C227.402 91.2422 226.998 91.4512 226.744 91.8691C226.49 92.2871 226.359 92.9297 226.352 93.7969V95.5312C226.352 96.4531 226.484 97.1348 226.75 97.5762C227.02 98.0137 227.426 98.2324 227.969 98.2324C228.504 98.2324 228.9 98.0254 229.158 97.6113C229.42 97.1973 229.557 96.5449 229.568 95.6543V93.8789ZM240.121 95.0566H236.424V98.0801H240.719V99H235.299V90.4688H240.66V91.3945H236.424V94.1367H240.121V95.0566ZM248.131 91.3945H245.389V99H244.27V91.3945H241.533V90.4688H248.131V91.3945ZM255.953 99H254.822V95.0566H250.521V99H249.396V90.4688H250.521V94.1367H254.822V90.4688H255.953V99Z" fill="black"/>
<circle cx="40" cy="95" r="6" fill="white" stroke="#00B812" stroke-width="2"/>
<rect x="25" y="38" width="240" height="1" fill="#00B812"/>
<rect x="25" y="114" width="240" height="1" fill="#00B812"/>
</g>
<rect x="1" y="38" width="288" height="38" rx="8" fill="white" stroke="#00B812" stroke-width="2"/>
<path d="M44.3486 63H37.8271V62.0908L41.2725 58.2627C41.7829 57.6839 42.1338 57.2145 42.3252 56.8545C42.5212 56.4899 42.6191 56.1139 42.6191 55.7266C42.6191 55.207 42.4619 54.7809 42.1475 54.4482C41.833 54.1156 41.4137 53.9492 40.8896 53.9492C40.2607 53.9492 39.7708 54.1292 39.4199 54.4893C39.0736 54.8447 38.9004 55.3415 38.9004 55.9795H37.6357C37.6357 55.0635 37.9297 54.3229 38.5176 53.7578C39.11 53.1927 39.9007 52.9102 40.8896 52.9102C41.8148 52.9102 42.5462 53.154 43.084 53.6416C43.6217 54.1247 43.8906 54.7695 43.8906 55.5762C43.8906 56.556 43.2663 57.7227 42.0176 59.0762L39.3516 61.9678H44.3486V63Z" fill="black"/>
<path d="M61.2109 52.6436C62.3001 52.6436 63.1227 53.0879 63.6787 53.9766C64.2393 54.8652 64.5195 56.18 64.5195 57.9209C64.5195 59.6618 64.2393 60.9766 63.6787 61.8652C63.1227 62.7539 62.3001 63.1982 61.2109 63.1982C60.1217 63.1982 59.2992 62.7539 58.7432 61.8652C58.1872 60.9766 57.9092 59.6618 57.9092 57.9209C57.9092 56.18 58.1872 54.8652 58.7432 53.9766C59.2992 53.0879 60.1217 52.6436 61.2109 52.6436ZM61.2109 62.1045C61.8581 62.1045 62.3389 61.7604 62.6533 61.0723C62.9723 60.3841 63.1318 59.3337 63.1318 57.9209C63.1318 57.1689 63.0863 56.4899 62.9951 55.8838L59.7412 60.9766C60.083 61.7285 60.5729 62.1045 61.2109 62.1045ZM61.2109 53.7373C60.5684 53.7373 60.0876 54.0814 59.7686 54.7695C59.4541 55.4577 59.2969 56.5081 59.2969 57.9209C59.2969 58.5635 59.3402 59.165 59.4268 59.7256L62.6123 54.6465C62.266 54.0404 61.7988 53.7373 61.2109 53.7373ZM73.0781 55.3438L70.3369 59.0078L73.3447 63H71.8887L69.6465 59.9307L67.4111 63H65.9551L68.9629 59.0078L66.2217 55.3438H67.6162L69.6465 58.1123L71.6631 55.3438H73.0781ZM81.7666 56.9229C81.4977 56.7132 81.2243 56.5605 80.9463 56.4648C80.6683 56.3691 80.363 56.3213 80.0303 56.3213C79.2464 56.3213 78.6471 56.5674 78.2324 57.0596C77.8177 57.5518 77.6104 58.2627 77.6104 59.1924V63H76.3457V55.3438H77.6104V56.8408C77.82 56.2985 78.1413 55.8838 78.5742 55.5967C79.0117 55.305 79.529 55.1592 80.126 55.1592C80.4359 55.1592 80.7253 55.1979 80.9941 55.2754C81.263 55.3529 81.5205 55.4736 81.7666 55.6377V56.9229ZM89.0811 53.0195V54.291C88.7939 54.1224 88.4886 53.9948 88.165 53.9082C87.8415 53.8171 87.5042 53.7715 87.1533 53.7715C86.2783 53.7715 85.6152 54.1019 85.1641 54.7627C84.7129 55.4189 84.4873 56.3874 84.4873 57.668C84.7061 57.2122 85.0091 56.8636 85.3965 56.6221C85.7839 56.376 86.2282 56.2529 86.7295 56.2529C87.7139 56.2529 88.4749 56.556 89.0127 57.1621C89.555 57.7637 89.8262 58.6182 89.8262 59.7256C89.8262 60.8285 89.5482 61.6829 88.9922 62.2891C88.4362 62.8952 87.6546 63.1982 86.6475 63.1982C85.4626 63.1982 84.5944 62.7744 84.043 61.9268C83.4915 61.0745 83.2158 59.7347 83.2158 57.9072C83.2158 56.1846 83.5462 54.8721 84.207 53.9697C84.8724 53.0628 85.834 52.6094 87.0918 52.6094C87.429 52.6094 87.7663 52.6458 88.1035 52.7188C88.4408 52.7871 88.7666 52.8874 89.0811 53.0195ZM86.6201 57.333C86.0322 57.333 85.5697 57.5449 85.2324 57.9688C84.8952 58.3926 84.7266 58.9782 84.7266 59.7256C84.7266 60.473 84.8952 61.0586 85.2324 61.4824C85.5697 61.9062 86.0322 62.1182 86.6201 62.1182C87.2308 62.1182 87.6911 61.9176 88.001 61.5166C88.3109 61.111 88.4658 60.514 88.4658 59.7256C88.4658 58.9326 88.3109 58.3356 88.001 57.9346C87.6911 57.5335 87.2308 57.333 86.6201 57.333ZM93.4014 60.2383H95.8076V63H93.4014V60.2383ZM101.837 60.2383H104.243V63H101.837V60.2383ZM110.272 60.2383H112.679V63H110.272V60.2383ZM118.708 60.2383H121.114V63H118.708V60.2383ZM128.682 53.1699V55.3438H131.539V56.3213H128.682V60.4775C128.682 61.0426 128.789 61.4368 129.003 61.6602C129.217 61.8835 129.591 61.9951 130.124 61.9951H131.539V63H130.001C129.058 63 128.392 62.8109 128.005 62.4326C127.618 62.0544 127.424 61.4027 127.424 60.4775V56.3213H125.38V55.3438H127.424V53.1699H128.682ZM137.131 52.6436C138.22 52.6436 139.043 53.0879 139.599 53.9766C140.159 54.8652 140.439 56.18 140.439 57.9209C140.439 59.6618 140.159 60.9766 139.599 61.8652C139.043 62.7539 138.22 63.1982 137.131 63.1982C136.042 63.1982 135.219 62.7539 134.663 61.8652C134.107 60.9766 133.829 59.6618 133.829 57.9209C133.829 56.18 134.107 54.8652 134.663 53.9766C135.219 53.0879 136.042 52.6436 137.131 52.6436ZM137.131 62.1045C137.778 62.1045 138.259 61.7604 138.573 61.0723C138.892 60.3841 139.052 59.3337 139.052 57.9209C139.052 57.1689 139.006 56.4899 138.915 55.8838L135.661 60.9766C136.003 61.7285 136.493 62.1045 137.131 62.1045ZM137.131 53.7373C136.488 53.7373 136.007 54.0814 135.688 54.7695C135.374 55.4577 135.217 56.5081 135.217 57.9209C135.217 58.5635 135.26 59.165 135.347 59.7256L138.532 54.6465C138.186 54.0404 137.719 53.7373 137.131 53.7373ZM142.771 52.7939H147.938V53.9561H144.028V56.4648C144.224 56.3919 144.42 56.3395 144.616 56.3076C144.817 56.2712 145.017 56.2529 145.218 56.2529C146.275 56.2529 147.114 56.5651 147.733 57.1895C148.353 57.8138 148.663 58.6592 148.663 59.7256C148.663 60.8011 148.337 61.6488 147.686 62.2686C147.038 62.8883 146.152 63.1982 145.026 63.1982C144.484 63.1982 143.987 63.1618 143.536 63.0889C143.09 63.016 142.688 62.9066 142.333 62.7607V61.3594C142.752 61.5872 143.174 61.7581 143.598 61.8721C144.021 61.9814 144.454 62.0361 144.896 62.0361C145.658 62.0361 146.243 61.8356 146.653 61.4346C147.068 61.0335 147.275 60.4639 147.275 59.7256C147.275 58.9964 147.061 58.429 146.633 58.0234C146.209 57.6178 145.617 57.415 144.855 57.415C144.486 57.415 144.126 57.4583 143.775 57.5449C143.424 57.627 143.09 57.7523 142.771 57.9209V52.7939ZM151.637 61.8447H153.783V54.1338L151.213 55.3711V54.0449L153.77 52.8281H155.15V61.8447H157.27V63H151.637V61.8447Z" fill="black"/>
<path d="M195.068 58.7549C195.068 60.236 194.815 61.3366 194.31 62.0566C193.804 62.7767 193.013 63.1367 191.938 63.1367C190.876 63.1367 190.09 62.7858 189.579 62.084C189.069 61.3776 188.804 60.3249 188.786 58.9258V57.2373C188.786 55.7744 189.039 54.6875 189.545 53.9766C190.051 53.2656 190.844 52.9102 191.924 52.9102C192.995 52.9102 193.783 53.2542 194.289 53.9424C194.795 54.626 195.055 55.6833 195.068 57.1143V58.7549ZM193.804 57.0254C193.804 55.9544 193.653 55.1751 193.353 54.6875C193.052 54.1953 192.576 53.9492 191.924 53.9492C191.277 53.9492 190.805 54.193 190.509 54.6807C190.213 55.1683 190.06 55.918 190.051 56.9297V58.9531C190.051 60.0286 190.206 60.8239 190.516 61.3389C190.83 61.8493 191.304 62.1045 191.938 62.1045C192.562 62.1045 193.024 61.863 193.325 61.3799C193.631 60.8968 193.79 60.1357 193.804 59.0967V57.0254ZM196.846 62.3369C196.846 62.1182 196.91 61.9359 197.037 61.79C197.169 61.6442 197.365 61.5713 197.625 61.5713C197.885 61.5713 198.081 61.6442 198.213 61.79C198.35 61.9359 198.418 62.1182 198.418 62.3369C198.418 62.5465 198.35 62.722 198.213 62.8633C198.081 63.0046 197.885 63.0752 197.625 63.0752C197.365 63.0752 197.169 63.0046 197.037 62.8633C196.91 62.722 196.846 62.5465 196.846 62.3369ZM204.536 63H203.265V54.5713L200.715 55.5078V54.3594L204.338 52.999H204.536V63ZM214.482 58.7549C214.482 60.236 214.229 61.3366 213.724 62.0566C213.218 62.7767 212.427 63.1367 211.352 63.1367C210.29 63.1367 209.504 62.7858 208.993 62.084C208.483 61.3776 208.218 60.3249 208.2 58.9258V57.2373C208.2 55.7744 208.453 54.6875 208.959 53.9766C209.465 53.2656 210.258 52.9102 211.338 52.9102C212.409 52.9102 213.197 53.2542 213.703 53.9424C214.209 54.626 214.469 55.6833 214.482 57.1143V58.7549ZM213.218 57.0254C213.218 55.9544 213.067 55.1751 212.767 54.6875C212.466 54.1953 211.99 53.9492 211.338 53.9492C210.691 53.9492 210.219 54.193 209.923 54.6807C209.627 55.1683 209.474 55.918 209.465 56.9297V58.9531C209.465 60.0286 209.62 60.8239 209.93 61.3389C210.244 61.8493 210.718 62.1045 211.352 62.1045C211.976 62.1045 212.438 61.863 212.739 61.3799C213.045 60.8968 213.204 60.1357 213.218 59.0967V57.0254ZM222.344 58.7549C222.344 60.236 222.091 61.3366 221.585 62.0566C221.079 62.7767 220.288 63.1367 219.213 63.1367C218.151 63.1367 217.365 62.7858 216.854 62.084C216.344 61.3776 216.08 60.3249 216.062 58.9258V57.2373C216.062 55.7744 216.314 54.6875 216.82 53.9766C217.326 53.2656 218.119 52.9102 219.199 52.9102C220.27 52.9102 221.059 53.2542 221.564 53.9424C222.07 54.626 222.33 55.6833 222.344 57.1143V58.7549ZM221.079 57.0254C221.079 55.9544 220.929 55.1751 220.628 54.6875C220.327 54.1953 219.851 53.9492 219.199 53.9492C218.552 53.9492 218.08 54.193 217.784 54.6807C217.488 55.1683 217.335 55.918 217.326 56.9297V58.9531C217.326 60.0286 217.481 60.8239 217.791 61.3389C218.105 61.8493 218.579 62.1045 219.213 62.1045C219.837 62.1045 220.3 61.863 220.601 61.3799C220.906 60.8968 221.065 60.1357 221.079 59.0967V57.0254ZM230.205 58.7549C230.205 60.236 229.952 61.3366 229.446 62.0566C228.94 62.7767 228.15 63.1367 227.074 63.1367C226.012 63.1367 225.226 62.7858 224.716 62.084C224.205 61.3776 223.941 60.3249 223.923 58.9258V57.2373C223.923 55.7744 224.176 54.6875 224.682 53.9766C225.188 53.2656 225.98 52.9102 227.061 52.9102C228.132 52.9102 228.92 53.2542 229.426 53.9424C229.932 54.626 230.191 55.6833 230.205 57.1143V58.7549ZM228.94 57.0254C228.94 55.9544 228.79 55.1751 228.489 54.6875C228.188 54.1953 227.712 53.9492 227.061 53.9492C226.413 53.9492 225.942 54.193 225.646 54.6807C225.349 55.1683 225.197 55.918 225.188 56.9297V58.9531C225.188 60.0286 225.342 60.8239 225.652 61.3389C225.967 61.8493 226.441 62.1045 227.074 62.1045C227.699 62.1045 228.161 61.863 228.462 61.3799C228.767 60.8968 228.927 60.1357 228.94 59.0967V57.0254ZM238.066 58.7549C238.066 60.236 237.813 61.3366 237.308 62.0566C236.802 62.7767 236.011 63.1367 234.936 63.1367C233.874 63.1367 233.088 62.7858 232.577 62.084C232.067 61.3776 231.802 60.3249 231.784 58.9258V57.2373C231.784 55.7744 232.037 54.6875 232.543 53.9766C233.049 53.2656 233.842 52.9102 234.922 52.9102C235.993 52.9102 236.781 53.2542 237.287 53.9424C237.793 54.626 238.053 55.6833 238.066 57.1143V58.7549ZM236.802 57.0254C236.802 55.9544 236.651 55.1751 236.351 54.6875C236.05 54.1953 235.574 53.9492 234.922 53.9492C234.275 53.9492 233.803 54.193 233.507 54.6807C233.211 55.1683 233.058 55.918 233.049 56.9297V58.9531C233.049 60.0286 233.204 60.8239 233.514 61.3389C233.828 61.8493 234.302 62.1045 234.936 62.1045C235.56 62.1045 236.022 61.863 236.323 61.3799C236.629 60.8968 236.788 60.1357 236.802 59.0967V57.0254ZM245.928 58.7549C245.928 60.236 245.675 61.3366 245.169 62.0566C244.663 62.7767 243.872 63.1367 242.797 63.1367C241.735 63.1367 240.949 62.7858 240.438 62.084C239.928 61.3776 239.664 60.3249 239.646 58.9258V57.2373C239.646 55.7744 239.898 54.6875 240.404 53.9766C240.91 53.2656 241.703 52.9102 242.783 52.9102C243.854 52.9102 244.643 53.2542 245.148 53.9424C245.654 54.626 245.914 55.6833 245.928 57.1143V58.7549ZM244.663 57.0254C244.663 55.9544 244.513 55.1751 244.212 54.6875C243.911 54.1953 243.435 53.9492 242.783 53.9492C242.136 53.9492 241.664 54.193 241.368 54.6807C241.072 55.1683 240.919 55.918 240.91 56.9297V58.9531C240.91 60.0286 241.065 60.8239 241.375 61.3389C241.689 61.8493 242.163 62.1045 242.797 62.1045C243.421 62.1045 243.884 61.863 244.185 61.3799C244.49 60.8968 244.649 60.1357 244.663 59.0967V57.0254ZM256.975 58.3994H252.661V61.9268H257.672V63H251.349V53.0469H257.604V54.127H252.661V57.3262H256.975V58.3994ZM266.319 54.127H263.12V63H261.814V54.127H258.622V53.0469H266.319V54.127ZM275.445 63H274.126V58.3994H269.108V63H267.796V53.0469H269.108V57.3262H274.126V53.0469H275.445V63Z" fill="black"/>
<circle cx="21" cy="58" r="7" fill="white" stroke="#00B812" stroke-width="2"/>
<path d="M20.4077 60.687C20.7256 60.687 20.9717 60.5776 21.1392 60.3315L24.1025 55.9634C24.2188 55.7959 24.2666 55.6147 24.2666 55.4575C24.2666 55.0063 23.9077 54.6611 23.4395 54.6611C23.125 54.6611 22.9199 54.7739 22.7285 55.0747L20.3975 58.6978L19.2524 57.4194C19.0918 57.2383 18.897 57.1494 18.6406 57.1494C18.1724 57.1494 17.8237 57.4912 17.8237 57.9492C17.8237 58.1577 17.8784 58.3184 18.0596 58.52L19.7173 60.3896C19.8984 60.5981 20.124 60.687 20.4077 60.687Z" fill="#00B812"/>
</svg>
