<svg width="184" height="118" viewBox="0 0 184 118" fill="none" xmlns="http://www.w3.org/2000/svg">
<path d="M8.5 4C8.5 2.067 10.067 0.5 12 0.5H172C173.933 0.5 175.5 2.067 175.5 4V107.5H8.5V4Z" fill="white" stroke="#00B812"/>
<rect x="12.5" y="4.5" width="159" height="99" rx="0.5" fill="white" stroke="#00B812"/>
<path fill-rule="evenodd" clip-rule="evenodd" d="M92 42.9091C95.3137 42.9091 98 45.5038 98 48.7046C98 51.9053 95.3137 54.5 92 54.5C88.6863 54.5 86 51.9053 86 48.7046C86 45.5038 88.6863 42.9091 92 42.9091ZM92 45.5401C90.1907 45.5401 88.724 46.9568 88.724 48.7045C88.724 50.4521 90.1907 51.8689 92 51.8689C93.8094 51.8689 95.2761 50.4521 95.2761 48.7045C95.2761 46.9568 93.8094 45.5401 92 45.5401ZM93.9509 32V41.1021H90.4172V34.9301H87.2515L88.2514 32H93.9509Z" fill="#00B812"/>
<path d="M43.5195 71.5879H47.252V73H41.7617V64.4688H43.5195V71.5879ZM47.8906 69.7715C47.8906 69.1426 48.0117 68.582 48.2539 68.0898C48.4961 67.5977 48.8438 67.2168 49.2969 66.9473C49.7539 66.6777 50.2832 66.543 50.8848 66.543C51.7402 66.543 52.4375 66.8047 52.9766 67.3281C53.5195 67.8516 53.8223 68.5625 53.8848 69.4609L53.8965 69.8945C53.8965 70.8672 53.625 71.6484 53.082 72.2383C52.5391 72.8242 51.8105 73.1172 50.8965 73.1172C49.9824 73.1172 49.252 72.8242 48.7051 72.2383C48.1621 71.6523 47.8906 70.8555 47.8906 69.8477V69.7715ZM49.584 69.8945C49.584 70.4961 49.6973 70.957 49.9238 71.2773C50.1504 71.5938 50.4746 71.752 50.8965 71.752C51.3066 71.752 51.627 71.5957 51.8574 71.2832C52.0879 70.9668 52.2031 70.4629 52.2031 69.7715C52.2031 69.1816 52.0879 68.7246 51.8574 68.4004C51.627 68.0762 51.3027 67.9141 50.8848 67.9141C50.4707 67.9141 50.1504 68.0762 49.9238 68.4004C49.6973 68.7207 49.584 69.2188 49.584 69.8945ZM54.6934 69.7832C54.6934 68.8105 54.9238 68.0273 55.3848 67.4336C55.8496 66.8398 56.4746 66.543 57.2598 66.543C57.9551 66.543 58.4961 66.7812 58.8828 67.2578L58.9531 66.6602H60.4883V72.7891C60.4883 73.3438 60.3613 73.8262 60.1074 74.2363C59.8574 74.6465 59.5039 74.959 59.0469 75.1738C58.5898 75.3887 58.0547 75.4961 57.4414 75.4961C56.9766 75.4961 56.5234 75.4023 56.082 75.2148C55.6406 75.0312 55.3066 74.793 55.0801 74.5L55.8301 73.4688C56.252 73.9414 56.7637 74.1777 57.3652 74.1777C57.8145 74.1777 58.1641 74.0566 58.4141 73.8145C58.6641 73.5762 58.7891 73.2363 58.7891 72.7949V72.4551C58.3984 72.8965 57.8848 73.1172 57.248 73.1172C56.4863 73.1172 55.8691 72.8203 55.3965 72.2266C54.9277 71.6289 54.6934 70.8379 54.6934 69.8535V69.7832ZM56.3867 69.9062C56.3867 70.4805 56.502 70.9316 56.7324 71.2598C56.9629 71.584 57.2793 71.7461 57.6816 71.7461C58.1973 71.7461 58.5664 71.5527 58.7891 71.166V68.5C58.5625 68.1133 58.1973 67.9199 57.6934 67.9199C57.2871 67.9199 56.9668 68.0859 56.7324 68.418C56.502 68.75 56.3867 69.2461 56.3867 69.9062ZM63.582 73H61.8828V66.6602H63.582V73ZM61.7832 65.0195C61.7832 64.7656 61.8672 64.5566 62.0352 64.3926C62.207 64.2285 62.4395 64.1465 62.7324 64.1465C63.0215 64.1465 63.252 64.2285 63.4238 64.3926C63.5957 64.5566 63.6816 64.7656 63.6816 65.0195C63.6816 65.2773 63.5938 65.4883 63.418 65.6523C63.2461 65.8164 63.0176 65.8984 62.7324 65.8984C62.4473 65.8984 62.2168 65.8164 62.041 65.6523C61.8691 65.4883 61.7832 65.2773 61.7832 65.0195ZM66.541 66.6602L66.5938 67.3926C67.0469 66.8262 67.6543 66.543 68.416 66.543C69.0879 66.543 69.5879 66.7402 69.916 67.1348C70.2441 67.5293 70.4121 68.1191 70.4199 68.9043V73H68.7266V68.9453C68.7266 68.5859 68.6484 68.3262 68.4922 68.166C68.3359 68.002 68.0762 67.9199 67.7129 67.9199C67.2363 67.9199 66.8789 68.123 66.6406 68.5293V73H64.9473V66.6602H66.541ZM81.4531 70.5391L82.6016 64.4688H84.3535L82.4609 73H80.6914L79.3027 67.293L77.9141 73H76.1445L74.252 64.4688H76.0039L77.1582 70.5273L78.5645 64.4688H80.0527L81.4531 70.5391ZM86.9844 73H85.2852V66.6602H86.9844V73ZM85.1855 65.0195C85.1855 64.7656 85.2695 64.5566 85.4375 64.3926C85.6094 64.2285 85.8418 64.1465 86.1348 64.1465C86.4238 64.1465 86.6543 64.2285 86.8262 64.3926C86.998 64.5566 87.084 64.7656 87.084 65.0195C87.084 65.2773 86.9961 65.4883 86.8203 65.6523C86.6484 65.8164 86.4199 65.8984 86.1348 65.8984C85.8496 65.8984 85.6191 65.8164 85.4434 65.6523C85.2715 65.4883 85.1855 65.2773 85.1855 65.0195ZM90.4121 65.1016V66.6602H91.4961V67.9023H90.4121V71.0664C90.4121 71.3008 90.457 71.4688 90.5469 71.5703C90.6367 71.6719 90.8086 71.7227 91.0625 71.7227C91.25 71.7227 91.416 71.709 91.5605 71.6816V72.9648C91.2285 73.0664 90.8867 73.1172 90.5352 73.1172C89.3477 73.1172 88.7422 72.5176 88.7188 71.3184V67.9023H87.793V66.6602H88.7188V65.1016H90.4121ZM94.0918 67.3516C94.541 66.8125 95.1055 66.543 95.7852 66.543C97.1602 66.543 97.8574 67.3418 97.877 68.9395V73H96.1836V68.9863C96.1836 68.623 96.1055 68.3555 95.9492 68.1836C95.793 68.0078 95.5332 67.9199 95.1699 67.9199C94.6738 67.9199 94.3145 68.1113 94.0918 68.4941V73H92.3984V64H94.0918V67.3516ZM109.262 68.9277C109.262 69.7676 109.113 70.5039 108.816 71.1367C108.52 71.7695 108.094 72.2578 107.539 72.6016C106.988 72.9453 106.355 73.1172 105.641 73.1172C104.934 73.1172 104.303 72.9473 103.748 72.6074C103.193 72.2676 102.764 71.7832 102.459 71.1543C102.154 70.5215 102 69.7949 101.996 68.9746V68.5527C101.996 67.7129 102.146 66.9746 102.447 66.3379C102.752 65.6973 103.18 65.207 103.73 64.8672C104.285 64.5234 104.918 64.3516 105.629 64.3516C106.34 64.3516 106.971 64.5234 107.521 64.8672C108.076 65.207 108.504 65.6973 108.805 66.3379C109.109 66.9746 109.262 67.7109 109.262 68.5469V68.9277ZM107.48 68.541C107.48 67.6465 107.32 66.9668 107 66.502C106.68 66.0371 106.223 65.8047 105.629 65.8047C105.039 65.8047 104.584 66.0352 104.264 66.4961C103.943 66.9531 103.781 67.625 103.777 68.5117V68.9277C103.777 69.7988 103.938 70.4746 104.258 70.9551C104.578 71.4355 105.039 71.6758 105.641 71.6758C106.23 71.6758 106.684 71.4453 107 70.9844C107.316 70.5195 107.477 69.8438 107.48 68.957V68.541ZM111.986 66.6602L112.039 67.3926C112.492 66.8262 113.1 66.543 113.861 66.543C114.533 66.543 115.033 66.7402 115.361 67.1348C115.689 67.5293 115.857 68.1191 115.865 68.9043V73H114.172V68.9453C114.172 68.5859 114.094 68.3262 113.938 68.166C113.781 68.002 113.521 67.9199 113.158 67.9199C112.682 67.9199 112.324 68.123 112.086 68.5293V73H110.393V66.6602H111.986ZM120.072 73.1172C119.143 73.1172 118.385 72.832 117.799 72.2617C117.217 71.6914 116.926 70.9316 116.926 69.9824V69.8184C116.926 69.1816 117.049 68.6133 117.295 68.1133C117.541 67.6094 117.889 67.2227 118.338 66.9531C118.791 66.6797 119.307 66.543 119.885 66.543C120.752 66.543 121.434 66.8164 121.93 67.3633C122.43 67.9102 122.68 68.6855 122.68 69.6895V70.3809H118.643C118.697 70.7949 118.861 71.127 119.135 71.377C119.412 71.627 119.762 71.752 120.184 71.752C120.836 71.752 121.346 71.5156 121.713 71.043L122.545 71.9746C122.291 72.334 121.947 72.6152 121.514 72.8184C121.08 73.0176 120.6 73.1172 120.072 73.1172ZM119.879 67.9141C119.543 67.9141 119.27 68.0273 119.059 68.2539C118.852 68.4805 118.719 68.8047 118.66 69.2266H121.016V69.0918C121.008 68.7168 120.906 68.4277 120.711 68.2246C120.516 68.0176 120.238 67.9141 119.879 67.9141ZM126.43 69.5781L125.516 70.5625V73H123.758V64.4688H125.516V68.3359L126.289 67.2754L128.463 64.4688H130.625L127.596 68.2598L130.713 73H128.621L126.43 69.5781ZM134.029 73.1172C133.1 73.1172 132.342 72.832 131.756 72.2617C131.174 71.6914 130.883 70.9316 130.883 69.9824V69.8184C130.883 69.1816 131.006 68.6133 131.252 68.1133C131.498 67.6094 131.846 67.2227 132.295 66.9531C132.748 66.6797 133.264 66.543 133.842 66.543C134.709 66.543 135.391 66.8164 135.887 67.3633C136.387 67.9102 136.637 68.6855 136.637 69.6895V70.3809H132.6C132.654 70.7949 132.818 71.127 133.092 71.377C133.369 71.627 133.719 71.752 134.141 71.752C134.793 71.752 135.303 71.5156 135.67 71.043L136.502 71.9746C136.248 72.334 135.904 72.6152 135.471 72.8184C135.037 73.0176 134.557 73.1172 134.029 73.1172ZM133.836 67.9141C133.5 67.9141 133.227 68.0273 133.016 68.2539C132.809 68.4805 132.676 68.8047 132.617 69.2266H134.973V69.0918C134.965 68.7168 134.863 68.4277 134.668 68.2246C134.473 68.0176 134.195 67.9141 133.836 67.9141ZM139.889 70.6035L141.061 66.6602H142.877L140.328 73.9844L140.188 74.3184C139.809 75.1465 139.184 75.5605 138.312 75.5605C138.066 75.5605 137.816 75.5234 137.562 75.4492V74.166L137.82 74.1719C138.141 74.1719 138.379 74.123 138.535 74.0254C138.695 73.9277 138.82 73.7656 138.91 73.5391L139.109 73.0176L136.889 66.6602H138.711L139.889 70.6035Z" fill="#00B812"/>
<rect x="0.5" y="107.5" width="183" height="10" rx="3.5" fill="white" stroke="#00B812"/>
</svg>
