<svg width="66" height="106" viewBox="0 0 66 106" fill="none" xmlns="http://www.w3.org/2000/svg">
<path fill-rule="evenodd" clip-rule="evenodd" d="M6.12777 1L59.8722 1C61.6553 1 62.3018 1.18565 62.9537 1.53427C63.6055 1.88288 64.1171 2.39446 64.4657 3.04631C64.8144 3.69816 65 4.34473 65 6.12777V99.8722C65 101.655 64.8144 102.302 64.4657 102.954C64.1171 103.606 63.6055 104.117 62.9537 104.466C62.3018 104.814 61.6553 105 59.8722 105H6.12777C4.34473 105 3.69816 104.814 3.04631 104.466C2.39446 104.117 1.88288 103.606 1.53427 102.954C1.18565 102.302 1 101.655 1 99.8722L1 6.12777C1 4.34473 1.18565 3.69816 1.53427 3.04631C1.88288 2.39446 2.39446 1.88288 3.04631 1.53427C3.69816 1.18565 4.34473 1 6.12777 1Z" fill="white" stroke="#00B812" stroke-opacity="0.5" stroke-width="2"/>
<path fill-rule="evenodd" clip-rule="evenodd" d="M33 52.5455C37.4183 52.5455 41 56.0051 41 60.2728C41 64.5404 37.4183 68 33 68C28.5817 68 25 64.5404 25 60.2728C25 56.0051 28.5817 52.5455 33 52.5455ZM33 56.0534C30.5876 56.0534 28.632 57.9424 28.632 60.2726C28.632 62.6028 30.5876 64.4918 33 64.4918C35.4125 64.4918 37.3681 62.6028 37.3681 60.2726C37.3681 57.9424 35.4125 56.0534 33 56.0534ZM35.6012 38V50.1361H30.8895V41.9068H26.6687L28.0019 38H35.6012Z" fill="#00B812"/>
</svg>
