<svg width="17" height="16" viewBox="0 0 17 16" fill="none" xmlns="http://www.w3.org/2000/svg">
<path d="M9.49999 1.33333C9.49999 0.781043 9.05228 0.333328 8.49999 0.333328C7.94771 0.333328 7.49999 0.781043 7.49999 1.33333H9.49999ZM7.49999 2.16666C7.49999 2.71895 7.94771 3.16666 8.49999 3.16666C9.05228 3.16666 9.49999 2.71895 9.49999 2.16666H7.49999ZM13.5 10.3333C12.9477 10.3333 12.5 10.781 12.5 11.3333C12.5 11.8856 12.9477 12.3333 13.5 12.3333V10.3333ZM15.1667 12.3333C15.7189 12.3333 16.1667 11.8856 16.1667 11.3333C16.1667 10.781 15.7189 10.3333 15.1667 10.3333V12.3333ZM8.49999 11.3333V10.3333C7.94771 10.3333 7.49999 10.781 7.49999 11.3333H8.49999ZM10.1667 12.3333C10.7189 12.3333 11.1667 11.8856 11.1667 11.3333C11.1667 10.781 10.7189 10.3333 10.1667 10.3333V12.3333ZM7.49999 14.6667C7.49999 15.2189 7.94771 15.6667 8.49999 15.6667C9.05228 15.6667 9.49999 15.2189 9.49999 14.6667H7.49999ZM9.49999 5.49999C9.49999 4.94771 9.05228 4.49999 8.49999 4.49999C7.94771 4.49999 7.49999 4.94771 7.49999 5.49999H9.49999ZM8.49999 7.99999H7.49999C7.49999 8.55228 7.94771 8.99999 8.49999 8.99999V7.99999ZM11.8333 13.6667C11.281 13.6667 10.8333 14.1144 10.8333 14.6667C10.8333 15.2189 11.281 15.6667 11.8333 15.6667V13.6667ZM15.1667 15.6667C15.7189 15.6667 16.1667 15.2189 16.1667 14.6667C16.1667 14.1144 15.7189 13.6667 15.1667 13.6667V15.6667ZM1.83333 6.99999C1.28104 6.99999 0.833328 7.44771 0.833328 7.99999C0.833328 8.55228 1.28104 8.99999 1.83333 8.99999V6.99999ZM5.16666 8.99999C5.71895 8.99999 6.16666 8.55228 6.16666 7.99999C6.16666 7.44771 5.71895 6.99999 5.16666 6.99999V8.99999ZM8.50833 8.99999C9.06061 8.99999 9.50833 8.55228 9.50833 7.99999C9.50833 7.44771 9.06061 6.99999 8.50833 6.99999V8.99999ZM11.8417 8.99999C12.3939 8.99999 12.8417 8.55228 12.8417 7.99999C12.8417 7.44771 12.3939 6.99999 11.8417 6.99999V8.99999ZM15.1667 6.99999C14.6144 6.99999 14.1667 7.44771 14.1667 7.99999C14.1667 8.55228 14.6144 8.99999 15.1667 8.99999V6.99999ZM15.175 8.99999C15.7273 8.99999 16.175 8.55228 16.175 7.99999C16.175 7.44771 15.7273 6.99999 15.175 6.99999V8.99999ZM2.66666 2.33333H4.33333V0.333328H2.66666V2.33333ZM4.16666 2.16666V3.83333H6.16666V2.16666H4.16666ZM4.33333 3.66666H2.66666V5.66666H4.33333V3.66666ZM2.83333 3.83333V2.16666H0.833328V3.83333H2.83333ZM2.66666 3.66666C2.75871 3.66666 2.83333 3.74128 2.83333 3.83333H0.833328C0.833328 4.84585 1.65414 5.66666 2.66666 5.66666V3.66666ZM4.16666 3.83333C4.16666 3.74128 4.24128 3.66666 4.33333 3.66666V5.66666C5.34585 5.66666 6.16666 4.84585 6.16666 3.83333H4.16666ZM4.33333 2.33333C4.24128 2.33333 4.16666 2.25871 4.16666 2.16666H6.16666C6.16666 1.15414 5.34585 0.333328 4.33333 0.333328V2.33333ZM2.66666 0.333328C1.65414 0.333328 0.833328 1.15414 0.833328 2.16666H2.83333C2.83333 2.25871 2.75871 2.33333 2.66666 2.33333V0.333328ZM12.6667 2.33333H14.3333V0.333328H12.6667V2.33333ZM14.1667 2.16666V3.83333H16.1667V2.16666H14.1667ZM14.3333 3.66666H12.6667V5.66666H14.3333V3.66666ZM12.8333 3.83333V2.16666H10.8333V3.83333H12.8333ZM12.6667 3.66666C12.7587 3.66666 12.8333 3.74128 12.8333 3.83333H10.8333C10.8333 4.84585 11.6541 5.66666 12.6667 5.66666V3.66666ZM14.1667 3.83333C14.1667 3.74128 14.2413 3.66666 14.3333 3.66666V5.66666C15.3458 5.66666 16.1667 4.84585 16.1667 3.83333H14.1667ZM14.3333 2.33333C14.2413 2.33333 14.1667 2.25871 14.1667 2.16666H16.1667C16.1667 1.15414 15.3458 0.333328 14.3333 0.333328V2.33333ZM12.6667 0.333328C11.6541 0.333328 10.8333 1.15414 10.8333 2.16666H12.8333C12.8333 2.25871 12.7587 2.33333 12.6667 2.33333V0.333328ZM2.66666 12.3333H4.33333V10.3333H2.66666V12.3333ZM4.16666 12.1667V13.8333H6.16666V12.1667H4.16666ZM4.33333 13.6667H2.66666V15.6667H4.33333V13.6667ZM2.83333 13.8333V12.1667H0.833328V13.8333H2.83333ZM2.66666 13.6667C2.75871 13.6667 2.83333 13.7413 2.83333 13.8333H0.833328C0.833328 14.8458 1.65414 15.6667 2.66666 15.6667V13.6667ZM4.16666 13.8333C4.16666 13.7413 4.24128 13.6667 4.33333 13.6667V15.6667C5.34585 15.6667 6.16666 14.8458 6.16666 13.8333H4.16666ZM4.33333 12.3333C4.24128 12.3333 4.16666 12.2587 4.16666 12.1667H6.16666C6.16666 11.1541 5.34585 10.3333 4.33333 10.3333V12.3333ZM2.66666 10.3333C1.65414 10.3333 0.833328 11.1541 0.833328 12.1667H2.83333C2.83333 12.2587 2.75871 12.3333 2.66666 12.3333V10.3333ZM7.49999 1.33333V2.16666H9.49999V1.33333H7.49999ZM13.5 12.3333H15.1667V10.3333H13.5V12.3333ZM8.49999 12.3333H10.1667V10.3333H8.49999V12.3333ZM7.49999 11.3333V14.6667H9.49999V11.3333H7.49999ZM7.49999 5.49999V7.99999H9.49999V5.49999H7.49999ZM11.8333 15.6667H15.1667V13.6667H11.8333V15.6667ZM1.83333 8.99999H5.16666V6.99999H1.83333V8.99999ZM8.49999 8.99999H8.50833V6.99999H8.49999V8.99999ZM15.1667 8.99999H15.175V6.99999H15.1667V8.99999ZM8.49999 8.99999H11.8417V6.99999H8.49999V8.99999Z" fill="#12121E"/>
</svg>
