<svg width="115" height="29" viewBox="0 0 115 29" fill="none" xmlns="http://www.w3.org/2000/svg">
<path fill-rule="evenodd" clip-rule="evenodd" d="M42.0772 22.8663C40.4133 22.8663 38.8784 22.4794 37.4724 21.7057C36.0665 20.932 34.9475 19.8297 34.1156 18.3988C33.2836 16.9678 32.8677 15.304 32.8677 13.4072C32.8677 11.4937 33.2836 9.8257 34.1156 8.40308C34.9475 6.98046 36.0665 5.88648 37.4724 5.12109C38.8784 4.35571 40.4133 3.97302 42.0772 3.97302C43.7411 3.97302 45.276 4.35571 46.682 5.12109C48.0879 5.88648 49.2069 6.98046 50.0388 8.40308C50.8708 9.8257 51.2867 11.4937 51.2867 13.4072C51.2867 15.304 50.8708 16.9678 50.0388 18.3988C49.2069 19.8297 48.0879 20.932 46.682 21.7057C45.276 22.4794 43.7411 22.8663 42.0772 22.8663ZM42.0772 20.3455C43.2253 20.3455 44.2735 20.0751 45.2219 19.5344C46.1703 18.9936 46.9232 18.2033 47.4806 17.1634C48.038 16.1234 48.3167 14.8797 48.3167 13.4321C48.3167 11.9679 48.038 10.7159 47.4806 9.67594C46.9232 8.63601 46.1745 7.84984 45.2344 7.3174C44.2943 6.78496 43.2419 6.51874 42.0772 6.51874C40.9125 6.51874 39.8559 6.78496 38.9075 7.3174C37.9591 7.84984 37.2104 8.63601 36.6613 9.67594C36.1122 10.7159 35.8377 11.9679 35.8377 13.4321C35.8377 14.8797 36.1205 16.1234 36.6863 17.1634C37.252 18.2033 38.0132 18.9936 38.9699 19.5344C39.9267 20.0751 40.9624 20.3455 42.0772 20.3455ZM55.7484 11.161H53.1028V22.6167H55.7983V16.9263C55.7983 16.1443 55.9688 15.4621 56.3099 14.8797C56.651 14.2974 57.0794 13.8523 57.5952 13.5445C58.1111 13.2367 58.6185 13.0827 59.1177 13.0827C59.9995 13.0827 60.5819 13.403 60.8648 14.0436C61.1476 14.6842 61.289 15.7283 61.289 17.1759V22.6167H63.9845V17.101C63.9845 15.6867 63.8764 14.5386 63.6601 13.6568C63.4438 12.7749 63.0195 12.0886 62.3872 11.5977C61.7549 11.1069 60.8481 10.8615 59.6668 10.8615C58.7516 10.8615 57.953 11.0861 57.2708 11.5353C56.5886 11.9846 56.0894 12.5586 55.7733 13.2575L55.7484 11.161ZM71.7405 22.8663C70.3761 22.8663 69.2364 22.5959 68.3212 22.0552C67.4061 21.5144 66.7322 20.7906 66.2996 19.8838C65.867 18.977 65.6507 17.9829 65.6507 16.9013C65.6507 15.6867 65.9045 14.6218 66.4119 13.7067C66.9194 12.7916 67.6224 12.0886 68.5209 11.5977C69.4194 11.1069 70.4343 10.8615 71.5658 10.8615C73.3295 10.8615 74.6398 11.3482 75.4967 12.3215C76.3536 13.2949 76.782 14.6634 76.782 16.4271C76.782 16.8764 76.7571 17.3423 76.7071 17.8248H68.471C68.654 18.8397 69.0159 19.5718 69.5567 20.0211C70.0974 20.4703 70.8503 20.695 71.8154 20.695C72.614 20.695 73.2713 20.6284 73.7871 20.4953C74.3029 20.3622 74.7771 20.1792 75.2097 19.9462L76.0333 21.868C75.6173 22.1342 75.0516 22.3671 74.3361 22.5668C73.6207 22.7665 72.7555 22.8663 71.7405 22.8663ZM73.4876 13.769C73.9535 14.1933 74.1781 14.9213 74.1615 15.9529H68.471C68.7372 14.0727 69.7439 13.1326 71.4909 13.1326C72.3562 13.1326 73.0217 13.3448 73.4876 13.769ZM82.8908 14.4055L81.3933 16.2524V22.6167H78.6479V4.27254H81.3933V12.4588L87.6827 4.27254H91.0271L84.7127 12.334L91.9256 22.6167H88.5064L82.8908 14.4055ZM94.1909 22.0552C95.106 22.5959 96.2458 22.8663 97.6101 22.8663C98.6251 22.8663 99.4903 22.7665 100.206 22.5668C100.921 22.3671 101.487 22.1342 101.903 21.868L101.079 19.9462C100.647 20.1792 100.173 20.3622 99.6567 20.4953C99.1409 20.6284 98.4837 20.695 97.685 20.695C96.72 20.695 95.9671 20.4703 95.4263 20.0211C94.8856 19.5718 94.5237 18.8397 94.3406 17.8248H102.577C102.627 17.3423 102.652 16.8764 102.652 16.4271C102.652 14.6634 102.223 13.2949 101.366 12.3215C100.509 11.3482 99.1992 10.8615 97.4354 10.8615C96.304 10.8615 95.289 11.1069 94.3906 11.5977C93.4921 12.0886 92.7891 12.7916 92.2816 13.7067C91.7741 14.6218 91.5204 15.6867 91.5204 16.9013C91.5204 17.9829 91.7367 18.977 92.1693 19.8838C92.6019 20.7906 93.2758 21.5144 94.1909 22.0552ZM100.031 15.9529C100.048 14.9213 99.8231 14.1933 99.3572 13.769C98.8913 13.3448 98.2257 13.1326 97.3605 13.1326C95.6134 13.1326 94.6068 14.0727 94.3406 15.9529H100.031ZM102.895 11.1609L107.637 22.9661L105.167 28.9061H107.962L115 11.1609H112.055L109.484 18.4487L108.935 20.2207L108.386 18.4487L105.94 11.1609H102.895Z" fill="black"/>
<path fill-rule="evenodd" clip-rule="evenodd" d="M13.5444 27.0888C22.8948 27.0888 27.0888 22.8948 27.0888 13.5444C27.0888 4.19394 22.8948 0 13.5444 0C4.19394 0 0 4.19394 0 13.5444C0 22.8948 4.19394 27.0888 13.5444 27.0888ZM11.0002 5.74329H14.7681V11.9526H12.4319V7.74215H10.3391L11.0002 5.74329ZM13.5444 21.3455C15.9177 21.3455 17.8416 19.4215 17.8416 17.0483C17.8416 14.675 15.9177 12.751 13.5444 12.751C11.1712 12.751 9.24724 14.675 9.24724 17.0483C9.24724 19.4215 11.1712 21.3455 13.5444 21.3455ZM13.5444 19.3946C14.8403 19.3946 15.8908 18.3441 15.8908 17.0482C15.8908 15.7524 14.8403 14.7019 13.5444 14.7019C12.2486 14.7019 11.1981 15.7524 11.1981 17.0482C11.1981 18.3441 12.2486 19.3946 13.5444 19.3946Z" fill="black"/>
</svg>
