<svg width="11" viewBox="0 0 11 18" fill="none" xmlns="http://www.w3.org/2000/svg">
  <path
    d="M4.17285 12.2969H6.77441V12.0938C6.79004 10.4375 7.3291 9.67969 8.60254 8.89844C10.04 8.03906 10.9385 6.86719 10.9385 5.07812C10.9385 2.4375 8.88379 0.78125 5.89941 0.78125C3.16504 0.78125 0.946289 2.29688 0.868164 5.26563H3.64941C3.71973 3.79688 4.78223 3.09375 5.88379 3.09375C7.0791 3.09375 8.04004 3.89062 8.04004 5.11719C8.04004 6.21094 7.31348 6.96094 6.36816 7.55469C4.98535 8.41406 4.18848 9.28125 4.17285 12.0938V12.2969ZM5.54004 17.1719C6.46191 17.1719 7.25098 16.4062 7.25879 15.4531C7.25098 14.5156 6.46191 13.75 5.54004 13.75C4.58691 13.75 3.81348 14.5156 3.82129 15.4531C3.81348 16.4062 4.58691 17.1719 5.54004 17.1719Z"
    fill="currentColor"></path>
</svg>
